<svg class="animated" id="freepik_stories-we-are-open" xmlns="http://www.w3.org/2000/svg" viewBox="0 0 500 500" version="1.1" xmlns:xlink="http://www.w3.org/1999/xlink" xmlns:svgjs="http://svgjs.com/svgjs"><style>svg#freepik_stories-we-are-open:not(.animated) .animable {opacity: 0;}svg#freepik_stories-we-are-open.animated #freepik--Sign--inject-159 {animation: 3s Infinite  linear floating;animation-delay: 0s;}            @keyframes floating {                0% {                    opacity: 1;                    transform: translateY(0px);                }                50% {                    transform: translateY(-10px);                }                100% {                    opacity: 1;                    transform: translateY(0px);                }            }        </style><g id="freepik--Wall--inject-159" class="animable" style="transform-origin: 245.02px 252.688px;"><g id="freepik--wall--inject-159" class="animable" style="transform-origin: 245.02px 252.688px;"><path d="M236.61,92.17v5c0,1.58,1.11,2.22,2.48,1.43L262,85.37a5.49,5.49,0,0,0,2.48-4.3v-5c0-1.58-1.11-2.22-2.48-1.43L239.09,87.87A5.49,5.49,0,0,0,236.61,92.17Z" style="fill: rgb(245, 245, 245); transform-origin: 250.545px 86.62px;" id="el4rrl9yytxzg" class="animable"></path><path d="M290.36,65.12v5c0,1.58,1.11,2.22,2.48,1.43l22.94-13.24A5.47,5.47,0,0,0,318.26,54V49c0-1.58-1.11-2.22-2.48-1.43L292.84,60.83A5.47,5.47,0,0,0,290.36,65.12Z" style="fill: rgb(245, 245, 245); transform-origin: 304.31px 59.56px;" id="elhahiy9j8ly" class="animable"></path><path d="M442.56,191.58l-20.2,11.66a5.49,5.49,0,0,0-2.47,4.29v5c0,1.58,1.1,2.22,2.47,1.43l20.2-11.66Z" style="fill: rgb(245, 245, 245); transform-origin: 431.225px 202.939px;" id="elk01yhnn2peb" class="animable"></path><path d="M437.72,218.26l4.84-2.8V204.73l-4.84,2.79a5.47,5.47,0,0,0-2.48,4.29v5C435.24,218.41,436.35,219.05,437.72,218.26Z" style="fill: rgb(245, 245, 245); transform-origin: 438.9px 211.664px;" id="el9uwrpzwfsyl" class="animable"></path><path d="M71.1,213.37,48.16,226.62a4.33,4.33,0,0,0-.87.69v10.36a2.62,2.62,0,0,0,.87-.31L71.1,224.11a5.47,5.47,0,0,0,2.48-4.29v-5C73.58,213.22,72.47,212.58,71.1,213.37Z" style="fill: rgb(245, 245, 245); transform-origin: 60.435px 225.351px;" id="el4rfhrmm3j8e" class="animable"></path><path d="M70.89,321.23,48,334.47a3.83,3.83,0,0,0-.66.5v10.51a3,3,0,0,0,.66-.27L70.89,332a5.49,5.49,0,0,0,2.48-4.3v-5C73.37,321.08,72.26,320.44,70.89,321.23Z" style="fill: rgb(245, 245, 245); transform-origin: 60.355px 333.186px;" id="elhnsidixgaof" class="animable"></path><path d="M71.1,266.12,48.16,279.36a4.05,4.05,0,0,0-.87.7v10.35a2.24,2.24,0,0,0,.87-.31L71.1,276.86a5.47,5.47,0,0,0,2.48-4.29v-5C73.58,266,72.47,265.33,71.1,266.12Z" style="fill: rgb(245, 245, 245); transform-origin: 60.435px 278.099px;" id="eljcjoj1t9bf" class="animable"></path><path d="M325.24,92.33,302.3,105.57a5.49,5.49,0,0,0-2.48,4.3v5c0,1.58,1.11,2.22,2.48,1.43l22.94-13.24a5.49,5.49,0,0,0,2.48-4.3v-5C327.72,92.18,326.61,91.54,325.24,92.33Z" style="fill: rgb(245, 245, 245); transform-origin: 313.77px 104.315px;" id="elg7w3sow0ijr" class="animable"></path><path d="M176,231.1l-22.94,13.24a5.46,5.46,0,0,0-2.47,4.29v5c0,1.58,1.1,2.22,2.47,1.43L176,241.83a5.47,5.47,0,0,0,2.48-4.29v-5C178.48,231,177.37,230.31,176,231.1Z" style="fill: rgb(245, 245, 245); transform-origin: 164.535px 243.085px;" id="elpqtq87zaujt" class="animable"></path><path d="M240.13,170.65v5c0,1.58,1.11,2.22,2.48,1.43l22.94-13.24a5.47,5.47,0,0,0,2.48-4.29v-5c0-1.58-1.11-2.22-2.48-1.43l-22.94,13.25A5.47,5.47,0,0,0,240.13,170.65Z" style="fill: rgb(245, 245, 245); transform-origin: 254.08px 165.1px;" id="elme6dvtgba" class="animable"></path><path d="M337,151.54l-20.2,11.67a5.47,5.47,0,0,0-2.48,4.29v5c0,1.58,1.11,2.22,2.48,1.43L337,162.28Z" style="fill: rgb(245, 245, 245); transform-origin: 325.66px 162.904px;" id="elq3hisdlwlo" class="animable"></path><path d="M210.28,149.88v5c0,1.58,1.11,2.22,2.48,1.43l22.94-13.25a5.47,5.47,0,0,0,2.48-4.29v-5c0-1.58-1.11-2.22-2.48-1.43l-22.94,13.25A5.47,5.47,0,0,0,210.28,149.88Z" style="fill: rgb(245, 245, 245); transform-origin: 224.23px 144.325px;" id="el09wnb887ymy6" class="animable"></path><path d="M280,78.88,257.1,92.12a5.49,5.49,0,0,0-2.48,4.3v5c0,1.58,1.11,2.22,2.48,1.43L280,89.62a5.49,5.49,0,0,0,2.48-4.3v-5C282.52,78.73,281.41,78.09,280,78.88Z" style="fill: rgb(245, 245, 245); transform-origin: 268.551px 90.8651px;" id="elly25vqpfo9" class="animable"></path><path d="M160.65,174.07l-22.94,13.24a5.49,5.49,0,0,0-2.48,4.3v5c0,1.58,1.11,2.22,2.48,1.43l22.94-13.24a5.49,5.49,0,0,0,2.48-4.3v-5C163.13,173.92,162,173.28,160.65,174.07Z" style="fill: rgb(245, 245, 245); transform-origin: 149.18px 186.055px;" id="elba5unrgg4" class="animable"></path><path d="M242.61,229.84l22.94-13.25A5.47,5.47,0,0,0,268,212.3v-5c0-1.58-1.11-2.22-2.48-1.43L242.61,219.1a5.47,5.47,0,0,0-2.48,4.29v5C240.13,230,241.24,230.63,242.61,229.84Z" style="fill: rgb(245, 245, 245); transform-origin: 254.065px 217.856px;" id="el5nh076jagd" class="animable"></path><path d="M78,285.21,101,272a5.47,5.47,0,0,0,2.48-4.29v-5c0-1.58-1.11-2.22-2.48-1.43L78,274.47a5.47,5.47,0,0,0-2.48,4.29v5C75.53,285.35,76.64,286,78,285.21Z" style="fill: rgb(245, 245, 245); transform-origin: 89.5px 273.244px;" id="elt3mfa6wdpg" class="animable"></path><path d="M419.89,136.31v5c0,1.59,1.11,2.23,2.47,1.44l20.2-11.67V120.36L422.36,132A5.49,5.49,0,0,0,419.89,136.31Z" style="fill: rgb(245, 245, 245); transform-origin: 431.225px 131.724px;" id="el5bebbnkadzf" class="animable"></path><path d="M212.76,352.53l22.94-13.24a5.47,5.47,0,0,0,2.48-4.29v-5c0-1.58-1.11-2.22-2.48-1.43L212.76,341.8a5.47,5.47,0,0,0-2.48,4.29v5C210.28,352.68,211.39,353.32,212.76,352.53Z" style="fill: rgb(245, 245, 245); transform-origin: 224.23px 340.55px;" id="elfyhr2n59bes" class="animable"></path><path d="M432.18,67.84v-5c0-1.58-1.11-2.22-2.48-1.43L406.76,74.64a5.47,5.47,0,0,0-2.48,4.29v5c0,1.58,1.11,2.22,2.48,1.43L429.7,72.13A5.47,5.47,0,0,0,432.18,67.84Z" style="fill: rgb(245, 245, 245); transform-origin: 418.23px 73.385px;" id="el8myzu7wyc3l" class="animable"></path><path d="M103.43,399.53v-5c0-1.58-1.11-2.23-2.48-1.43L78,406.33a5.47,5.47,0,0,0-2.48,4.29v5c0,1.58,1.11,2.22,2.48,1.43L101,403.82A5.47,5.47,0,0,0,103.43,399.53Z" style="fill: rgb(240, 240, 240); transform-origin: 89.475px 405.073px;" id="elpdl2t323fwh" class="animable"></path><path d="M442.56,165.63l-20.2,11.66a5.47,5.47,0,0,0-2.48,4.3v5c0,1.58,1.11,2.22,2.48,1.43l20.2-11.66Z" style="fill: rgb(245, 245, 245); transform-origin: 431.22px 176.994px;" id="elpq78pd0hhbn" class="animable"></path><path d="M71.1,93.82,48.16,107.06a4.05,4.05,0,0,0-.87.7v10.35a2.41,2.41,0,0,0,.87-.31L71.1,104.56a5.49,5.49,0,0,0,2.48-4.3v-5C73.58,93.67,72.47,93,71.1,93.82Z" style="fill: rgb(245, 245, 245); transform-origin: 60.435px 105.789px;" id="el7mu4dlq0o6e" class="animable"></path><path d="M61,115.64v5c0,1.58,1.11,2.22,2.48,1.43l22.94-13.24a5.49,5.49,0,0,0,2.48-4.3v-5c0-1.58-1.11-2.22-2.48-1.43L63.52,111.34A5.49,5.49,0,0,0,61,115.64Z" style="fill: rgb(245, 245, 245); transform-origin: 74.95px 110.085px;" id="el4bd786oi374" class="animable"></path><path d="M56.61,247.17l-9.32,5.38v10.74l9.32-5.39a5.47,5.47,0,0,0,2.48-4.29v-5C59.09,247,58,246.38,56.61,247.17Z" style="fill: rgb(245, 245, 245); transform-origin: 53.19px 255.059px;" id="elj02pgwir74" class="animable"></path><path d="M93.37,395l22.94-13.25a5.47,5.47,0,0,0,2.48-4.29v-5c0-1.59-1.11-2.23-2.48-1.44L93.37,384.24a5.47,5.47,0,0,0-2.48,4.29v5C90.89,395.13,92,395.77,93.37,395Z" style="fill: rgb(240, 240, 240); transform-origin: 104.84px 383.003px;" id="elxndmss57s1l" class="animable"></path><path d="M71.1,357.54,48.16,370.79a4.33,4.33,0,0,0-.87.69v10.36a2.62,2.62,0,0,0,.87-.31L71.1,368.28A5.47,5.47,0,0,0,73.58,364v-5C73.58,357.39,72.47,356.75,71.1,357.54Z" style="fill: rgb(240, 240, 240); transform-origin: 60.435px 369.521px;" id="el1273bk3hitc" class="animable"></path><path d="M180.43,85.16v5c0,1.58,1.11,2.22,2.48,1.43l22.94-13.24a5.47,5.47,0,0,0,2.48-4.29v-5c0-1.58-1.11-2.22-2.48-1.43L182.91,80.86A5.49,5.49,0,0,0,180.43,85.16Z" style="fill: rgb(245, 245, 245); transform-origin: 194.38px 79.61px;" id="elofc7t56xnzs" class="animable"></path><path d="M56.61,168.05l-9.32,5.38v10.74l9.32-5.38a5.49,5.49,0,0,0,2.48-4.3v-5C59.09,167.9,58,167.26,56.61,168.05Z" style="fill: rgb(245, 245, 245); transform-origin: 53.19px 175.941px;" id="el4hq6ccpue8" class="animable"></path><path d="M101,129.36,78,142.6a5.49,5.49,0,0,0-2.48,4.3v5c0,1.58,1.11,2.22,2.48,1.43L101,140.1a5.49,5.49,0,0,0,2.48-4.3v-5C103.43,129.21,102.32,128.57,101,129.36Z" style="fill: rgb(245, 245, 245); transform-origin: 89.5px 141.345px;" id="eld44xblzule9" class="animable"></path><path d="M160.65,68.58,137.71,81.82a5.47,5.47,0,0,0-2.48,4.3v5c0,1.58,1.11,2.22,2.48,1.43l22.94-13.24a5.49,5.49,0,0,0,2.48-4.3V70C163.13,68.43,162,67.79,160.65,68.58Z" style="fill: rgb(245, 245, 245); transform-origin: 149.18px 80.5649px;" id="el4213j3rs4hy" class="animable"></path><path d="M153.06,360.57,176,347.32a5.47,5.47,0,0,0,2.48-4.29v-5c0-1.58-1.11-2.22-2.48-1.43l-22.94,13.24a5.46,5.46,0,0,0-2.47,4.29v5C150.59,360.72,151.69,361.36,153.06,360.57Z" style="fill: rgb(245, 245, 245); transform-origin: 164.535px 348.585px;" id="elwhww0xpsdl" class="animable"></path><path d="M193,321.55v-5c0-1.58-1.11-2.22-2.48-1.43l-22.94,13.25a5.46,5.46,0,0,0-2.47,4.29v5c0,1.58,1.11,2.22,2.48,1.43l22.94-13.24A5.47,5.47,0,0,0,193,321.55Z" style="fill: rgb(245, 245, 245); transform-origin: 179.055px 327.105px;" id="el1a5xgx518l1j" class="animable"></path><path d="M160.65,147.7l-22.94,13.24a5.47,5.47,0,0,0-2.48,4.29v5c0,1.58,1.11,2.22,2.48,1.43l22.94-13.25a5.47,5.47,0,0,0,2.48-4.29v-5C163.13,147.55,162,146.91,160.65,147.7Z" style="fill: rgb(245, 245, 245); transform-origin: 149.18px 159.68px;" id="eloh8se0yh7pc" class="animable"></path><path d="M190.49,89.71,167.55,103a5.46,5.46,0,0,0-2.47,4.29v5c0,1.58,1.11,2.22,2.48,1.43l22.94-13.24A5.47,5.47,0,0,0,193,96.16v-5C193,89.56,191.86,88.92,190.49,89.71Z" style="fill: rgb(245, 245, 245); transform-origin: 179.04px 101.715px;" id="el2r6l4b2kg2d" class="animable"></path><path d="M90.89,256.67v5c0,1.58,1.11,2.22,2.48,1.43l22.94-13.24a5.47,5.47,0,0,0,2.48-4.29v-5c0-1.58-1.11-2.22-2.48-1.43L93.37,252.38A5.47,5.47,0,0,0,90.89,256.67Z" style="fill: rgb(245, 245, 245); transform-origin: 104.84px 251.12px;" id="el4f3ghdaz0on" class="animable"></path><path d="M397.59,123.72l22.94-13.25a5.47,5.47,0,0,0,2.48-4.29v-5c0-1.58-1.11-2.22-2.48-1.43L397.59,113a5.47,5.47,0,0,0-2.48,4.29v5C395.11,123.87,396.22,124.51,397.59,123.72Z" style="fill: rgb(245, 245, 245); transform-origin: 409.06px 111.735px;" id="elgcvigx946ss" class="animable"></path><path d="M93.37,368.6l22.94-13.24a5.47,5.47,0,0,0,2.48-4.29v-5c0-1.58-1.11-2.22-2.48-1.43L93.37,357.87a5.47,5.47,0,0,0-2.48,4.29v5C90.89,368.75,92,369.4,93.37,368.6Z" style="fill: rgb(245, 245, 245); transform-origin: 104.84px 356.622px;" id="elul1055bn2he" class="animable"></path><path d="M146.16,274.67l-22.94,13.25a5.47,5.47,0,0,0-2.48,4.29v5c0,1.59,1.11,2.23,2.48,1.44l22.94-13.25a5.47,5.47,0,0,0,2.48-4.29v-5C148.64,274.52,147.53,273.88,146.16,274.67Z" style="fill: rgb(245, 245, 245); transform-origin: 134.69px 286.66px;" id="elwdmbh82hc6k" class="animable"></path><path d="M180.43,205.06v5c0,1.58,1.11,2.22,2.48,1.43l22.94-13.24a5.49,5.49,0,0,0,2.48-4.3v-5c0-1.58-1.11-2.22-2.48-1.43l-22.94,13.24A5.49,5.49,0,0,0,180.43,205.06Z" style="fill: rgb(245, 245, 245); transform-origin: 194.38px 199.505px;" id="elh692kjlavsa" class="animable"></path><path d="M270,153.44v5c0,1.58,1.11,2.22,2.47,1.43l22.95-13.25a5.47,5.47,0,0,0,2.48-4.29v-5c0-1.58-1.11-2.22-2.48-1.43l-22.95,13.24A5.49,5.49,0,0,0,270,153.44Z" style="fill: rgb(245, 245, 245); transform-origin: 283.95px 147.885px;" id="el6owuot4t36f" class="animable"></path><path d="M419.89,56.57v5c0,1.58,1.1,2.22,2.47,1.43l20.2-11.66V40.61l-20.2,11.67A5.49,5.49,0,0,0,419.89,56.57Z" style="fill: rgb(245, 245, 245); transform-origin: 431.225px 51.9742px;" id="el94d2lea46b7" class="animable"></path><path d="M312.36,173.61v-5c0-1.58-1.11-2.22-2.47-1.43L287,180.41a5.47,5.47,0,0,0-2.48,4.29v5c0,1.58,1.11,2.22,2.47,1.43l22.95-13.25A5.49,5.49,0,0,0,312.36,173.61Z" style="fill: rgb(245, 245, 245); transform-origin: 298.44px 179.155px;" id="elxu72028iorf" class="animable"></path><path d="M250.19,137.23l-22.94,13.24a5.49,5.49,0,0,0-2.48,4.3v5c0,1.58,1.11,2.22,2.48,1.43L250.19,148a5.47,5.47,0,0,0,2.48-4.3v-5C252.67,137.08,251.56,136.44,250.19,137.23Z" style="fill: rgb(245, 245, 245); transform-origin: 238.72px 149.215px;" id="el6jcb27h9wu" class="animable"></path><path d="M240.13,329.79v5c0,1.58,1.11,2.22,2.48,1.43L265.55,323A5.47,5.47,0,0,0,268,318.7v-5c0-1.58-1.11-2.22-2.48-1.43L242.61,325.5A5.47,5.47,0,0,0,240.13,329.79Z" style="fill: rgb(245, 245, 245); transform-origin: 254.065px 324.245px;" id="elvx97cizczu" class="animable"></path><path d="M250.19,296.37l-22.94,13.25a5.47,5.47,0,0,0-2.48,4.29v5c0,1.58,1.11,2.22,2.48,1.43l22.94-13.25a5.47,5.47,0,0,0,2.48-4.29v-5C252.67,296.22,251.56,295.58,250.19,296.37Z" style="fill: rgb(245, 245, 245); transform-origin: 238.72px 308.355px;" id="elha2p1q6824q" class="animable"></path><path d="M193,242.43v-5c0-1.58-1.11-2.22-2.48-1.43l-22.94,13.25a5.46,5.46,0,0,0-2.47,4.29v5c0,1.59,1.11,2.23,2.48,1.44l22.94-13.25A5.47,5.47,0,0,0,193,242.43Z" style="fill: rgb(245, 245, 245); transform-origin: 179.055px 247.99px;" id="elppucyutpjqk" class="animable"></path><path d="M391,217.84l22.94-13.25a5.47,5.47,0,0,0,2.48-4.29v-5c0-1.58-1.11-2.22-2.48-1.43L391,207.1a5.5,5.5,0,0,0-2.48,4.29v5C388.47,218,389.58,218.63,391,217.84Z" style="fill: rgb(245, 245, 245); transform-origin: 402.469px 205.856px;" id="elrffv6jqyw5" class="animable"></path><path d="M401,226.45,378,239.7a5.47,5.47,0,0,0-2.48,4.29v5c0,1.58,1.11,2.22,2.48,1.43L401,237.19a5.47,5.47,0,0,0,2.48-4.29v-5C403.45,226.31,402.34,225.66,401,226.45Z" style="fill: rgb(245, 245, 245); transform-origin: 389.5px 238.436px;" id="elb5j0dcmzk1s" class="animable"></path><path d="M240.13,279.1v-5c0-1.58-1.11-2.22-2.48-1.43L214.71,285.9a5.49,5.49,0,0,0-2.48,4.3v5c0,1.58,1.11,2.22,2.48,1.43l22.94-13.24A5.49,5.49,0,0,0,240.13,279.1Z" style="fill: rgb(245, 245, 245); transform-origin: 226.18px 284.65px;" id="eldj4ynbooxh" class="animable"></path><path d="M222.82,357.09v-5c0-1.58-1.11-2.22-2.48-1.43L197.4,363.89a5.47,5.47,0,0,0-2.48,4.29v5c0,1.58,1.11,2.22,2.48,1.43l22.94-13.24A5.47,5.47,0,0,0,222.82,357.09Z" style="fill: rgb(245, 245, 245); transform-origin: 208.87px 362.635px;" id="el52uw3iskv9m" class="animable"></path><path d="M120.74,81.23v5c0,1.58,1.11,2.22,2.48,1.43l22.94-13.24a5.47,5.47,0,0,0,2.48-4.29v-5c0-1.58-1.11-2.22-2.48-1.43L123.22,76.94A5.47,5.47,0,0,0,120.74,81.23Z" style="fill: rgb(245, 245, 245); transform-origin: 134.69px 75.68px;" id="elxwbxj8w8d8c" class="animable"></path><path d="M163.13,391.49v-5c0-1.58-1.11-2.22-2.48-1.43l-22.94,13.24a5.51,5.51,0,0,0-2.48,4.3v5c0,1.58,1.11,2.22,2.48,1.43l22.94-13.24A5.47,5.47,0,0,0,163.13,391.49Z" style="fill: rgb(240, 240, 240); transform-origin: 149.18px 397.045px;" id="elvfuw2s6rzke" class="animable"></path><path d="M56.61,431.78l-9.32,5.38V447.9l9.32-5.39a5.47,5.47,0,0,0,2.48-4.29v-5C59.09,431.63,58,431,56.61,431.78Z" style="fill: rgb(240, 240, 240); transform-origin: 53.19px 439.673px;" id="eleputre2ad9s" class="animable"></path><path d="M71.1,172.94,48.16,186.18a4.33,4.33,0,0,0-.87.69v10.36a2.41,2.41,0,0,0,.87-.31L71.1,183.67a5.47,5.47,0,0,0,2.48-4.29v-5C73.58,172.79,72.47,172.15,71.1,172.94Z" style="fill: rgb(245, 245, 245); transform-origin: 60.435px 184.916px;" id="elu6ohwoqtseq" class="animable"></path><path d="M182.91,343.37l22.94-13.25a5.47,5.47,0,0,0,2.48-4.29v-5c0-1.58-1.11-2.22-2.48-1.43l-22.94,13.25a5.47,5.47,0,0,0-2.48,4.29v5C180.43,343.51,181.54,344.16,182.91,343.37Z" style="fill: rgb(245, 245, 245); transform-origin: 194.38px 331.384px;" id="elgc3a6r0yfd" class="animable"></path><path d="M430.82,140.26,407.88,153.5a5.49,5.49,0,0,0-2.48,4.3v5c0,1.58,1.11,2.22,2.47,1.43L430.82,151a5.51,5.51,0,0,0,2.47-4.3v-5C433.29,140.11,432.18,139.47,430.82,140.26Z" style="fill: rgb(245, 245, 245); transform-origin: 419.345px 152.245px;" id="el7rei4m0q6xp" class="animable"></path><path d="M266.66,232.26,243.72,245.5a5.51,5.51,0,0,0-2.48,4.3v5c0,1.58,1.11,2.22,2.48,1.43L266.66,243a5.47,5.47,0,0,0,2.48-4.29v-5C269.14,232.11,268,231.47,266.66,232.26Z" style="fill: rgb(245, 245, 245); transform-origin: 255.19px 244.245px;" id="eltegviaan9a9" class="animable"></path><path d="M220.34,72.51,197.4,85.75A5.47,5.47,0,0,0,194.92,90v5c0,1.58,1.11,2.22,2.48,1.43l22.94-13.25A5.47,5.47,0,0,0,222.82,79v-5C222.82,72.36,221.71,71.72,220.34,72.51Z" style="fill: rgb(245, 245, 245); transform-origin: 208.87px 84.4707px;" id="elgwf22d62cqe" class="animable"></path><path d="M332.33,51.36,309.39,64.61a5.47,5.47,0,0,0-2.48,4.29v5c0,1.58,1.11,2.22,2.48,1.43L332.33,62.1a5.47,5.47,0,0,0,2.48-4.29v-5C334.81,51.21,333.7,50.57,332.33,51.36Z" style="fill: rgb(245, 245, 245); transform-origin: 320.86px 63.3452px;" id="elhd7tv1pekfo" class="animable"></path><path d="M107.86,215.26,130.8,202a5.47,5.47,0,0,0,2.48-4.29v-5c0-1.58-1.11-2.22-2.48-1.43l-22.94,13.25a5.47,5.47,0,0,0-2.48,4.29v5C105.38,215.41,106.49,216.05,107.86,215.26Z" style="fill: rgb(245, 245, 245); transform-origin: 119.33px 203.27px;" id="el61wpjyx9azc" class="animable"></path><path d="M222.82,278v-5c0-1.58-1.11-2.22-2.48-1.43L197.4,284.77a5.47,5.47,0,0,0-2.48,4.29v5c0,1.58,1.11,2.22,2.48,1.43l22.94-13.25A5.47,5.47,0,0,0,222.82,278Z" style="fill: rgb(245, 245, 245); transform-origin: 208.87px 283.53px;" id="elwh4kosqa11h" class="animable"></path><path d="M302.3,195.43l22.94-13.25a5.47,5.47,0,0,0,2.48-4.29v-5c0-1.58-1.11-2.22-2.48-1.43L302.3,184.69a5.47,5.47,0,0,0-2.48,4.29v5C299.82,195.58,300.93,196.22,302.3,195.43Z" style="fill: rgb(245, 245, 245); transform-origin: 313.77px 183.445px;" id="el8hyjf2528sf" class="animable"></path><path d="M252.67,208v-5c0-1.58-1.11-2.22-2.48-1.43l-22.94,13.25a5.47,5.47,0,0,0-2.48,4.29v5c0,1.58,1.11,2.22,2.48,1.43l22.94-13.25A5.47,5.47,0,0,0,252.67,208Z" style="fill: rgb(245, 245, 245); transform-origin: 238.72px 213.555px;" id="el55hrqmxq1xb" class="animable"></path><path d="M55.53,317l-8.24,4.75v10.74l8.24-4.76A5.47,5.47,0,0,0,58,323.39v-5C58,316.8,56.9,316.16,55.53,317Z" style="fill: rgb(245, 245, 245); transform-origin: 52.645px 324.56px;" id="el4dlmrxkmbfx" class="animable"></path><path d="M72.19,387.46,49.25,400.71a5.29,5.29,0,0,0-2,2.25v8.49a1.59,1.59,0,0,0,2,0L72.19,398.2a5.47,5.47,0,0,0,2.48-4.29v-5C74.67,387.31,73.56,386.67,72.19,387.46Z" style="fill: rgb(240, 240, 240); transform-origin: 60.96px 399.463px;" id="el2qggqzx1eax" class="animable"></path><path d="M90.89,151.18v5c0,1.58,1.11,2.22,2.48,1.43l22.94-13.24a5.47,5.47,0,0,0,2.48-4.29v-5c0-1.58-1.11-2.22-2.48-1.43L93.37,146.89A5.47,5.47,0,0,0,90.89,151.18Z" style="fill: rgb(245, 245, 245); transform-origin: 104.84px 145.63px;" id="elu1f4pny8pp7" class="animable"></path><path d="M442.56,218l-20.2,11.66a5.47,5.47,0,0,0-2.48,4.29v5c0,1.58,1.11,2.22,2.48,1.43l20.2-11.66Z" style="fill: rgb(245, 245, 245); transform-origin: 431.22px 229.359px;" id="el52qlowvzcdp" class="animable"></path><path d="M49.32,464.75a.51.51,0,0,1-.25-1l393-226.92a.52.52,0,0,1,.52.89l-393,226.92A.48.48,0,0,1,49.32,464.75Z" style="fill: rgb(224, 224, 224); transform-origin: 245.735px 350.778px;" id="elteeqxl2eg" class="animable"></path></g></g><g id="freepik--Window--inject-159" class="animable" style="transform-origin: 340.4px 174.02px;"><g id="freepik--window--inject-159" class="animable" style="transform-origin: 340.4px 174.02px;"><path d="M411.83,185.48a.75.75,0,0,0-.79,0,2.61,2.61,0,0,1-2.56.26c-.88-.5-1.38-1.76-1.38-3.45a.79.79,0,0,0-.39-.69.81.81,0,0,0-.8,0L277.12,255.94a.82.82,0,0,0-.39.69c0,3.51-2.12,7.6-4.72,9.1a.78.78,0,0,0-.4.69v43.87a.79.79,0,0,0,.4.68.75.75,0,0,0,.79,0,2.58,2.58,0,0,1,2.56-.27c.87.5,1.37,1.76,1.37,3.45a.77.77,0,0,0,.79.8.77.77,0,0,0,.4-.1L406.71,240.5a.8.8,0,0,0,.39-.68c0-3.46,2.16-7.63,4.73-9.11a.81.81,0,0,0,.4-.68V186.16A.79.79,0,0,0,411.83,185.48Zm-1.19,44.11c-2.79,1.85-4.95,6-5.12,9.76l-127.3,73.49a4.69,4.69,0,0,0-2.07-3.52,3.39,3.39,0,0,0-1.71-.45,3.92,3.92,0,0,0-1.24.2V266.86c2.78-1.86,4.95-6,5.11-9.77l127.31-73.48a4.66,4.66,0,0,0,2.07,3.51,3.62,3.62,0,0,0,2.95.25Z" style="fill: rgb(224, 224, 224); transform-origin: 341.92px 248.222px;" id="elrgmhjjv8jue" class="animable"></path><path d="M410.64,187.37v42.22c-2.79,1.85-4.95,6-5.12,9.76l-127.3,73.49a4.69,4.69,0,0,0-2.07-3.52,3.39,3.39,0,0,0-1.71-.45,3.92,3.92,0,0,0-1.24.2V266.86c2.78-1.86,4.95-6,5.11-9.77l127.31-73.48a4.66,4.66,0,0,0,2.07,3.51A3.62,3.62,0,0,0,410.64,187.37Z" style="fill: rgb(255, 255, 255); transform-origin: 341.92px 248.225px;" id="eln22ra9tuloh" class="animable"></path><g id="freepik--window--inject-159" class="animable" style="transform-origin: 340.4px 133.3px;"><g id="freepik--window--inject-159" class="animable" style="transform-origin: 340.4px 133.3px;"><g id="freepik--Frame--inject-159" class="animable" style="transform-origin: 340.4px 133.3px;"><polygon points="403.28 43.22 406.41 44.98 406.41 149.01 403.28 147.26 403.28 43.22" style="fill: rgb(250, 250, 250); transform-origin: 404.845px 96.115px;" id="ely02wdxgiim" class="animable"></polygon><polygon points="403.28 147.26 403.27 46.79 277.5 119.41 277.52 219.87 403.28 147.26" style="fill: rgb(255, 255, 255); transform-origin: 340.39px 133.33px;" id="elfjh08sfweeo" class="animable"></polygon><path d="M412.23,152.37V34.9L271.68,116.05V233.51ZM277.5,223.44v-104L406.41,45V149Z" style="fill: rgb(240, 240, 240); transform-origin: 341.955px 134.205px;" id="elb8vqznn9zxn" class="animable"></path><polygon points="406.41 149.01 403.28 147.26 277.52 219.87 277.5 223.44 406.41 149.01" style="fill: rgb(224, 224, 224); transform-origin: 341.955px 185.35px;" id="el5ixcdppc3kw" class="animable"></polygon><polygon points="371.3 65.25 374.44 63.44 374.44 167.47 371.3 165.72 371.3 65.25" style="fill: rgb(250, 250, 250); transform-origin: 372.87px 115.455px;" id="elinefl9166gc" class="animable"></polygon><polygon points="300.65 106.04 303.78 104.23 303.78 208.27 300.65 206.52 300.65 106.04" style="fill: rgb(250, 250, 250); transform-origin: 302.215px 156.25px;" id="elq2wa16ccfns" class="animable"></polygon><polygon points="271.68 233.51 268.57 231.7 268.57 114.23 271.68 116.05 271.68 233.51" style="fill: rgb(224, 224, 224); transform-origin: 270.125px 173.87px;" id="elvcnpkif74tr" class="animable"></polygon><polygon points="268.57 114.23 271.68 116.05 412.23 34.9 409.11 33.09 268.57 114.23" style="fill: rgb(250, 250, 250); transform-origin: 340.4px 74.57px;" id="eloycu4d4vbyd" class="animable"></polygon><polygon points="277.5 143.07 277.5 146.68 406.42 72.25 403.31 70.44 277.5 143.07" style="fill: rgb(224, 224, 224); transform-origin: 341.96px 108.56px;" id="elpm54ahqp54l" class="animable"></polygon></g><polygon points="277.51 153.39 277.5 146.68 406.42 72.25 406.41 78.97 277.51 153.39" style="fill: rgb(240, 240, 240); transform-origin: 341.96px 112.82px;" id="elyos9knmwu4" class="animable"></polygon><polygon points="303.78 214.98 309.59 211.63 309.59 94.16 303.78 97.52 303.78 214.98" style="fill: rgb(240, 240, 240); transform-origin: 306.685px 154.57px;" id="eleha87eqtxtl" class="animable"></polygon><polygon points="374.42 174.2 380.23 170.84 380.23 53.38 374.42 56.73 374.42 174.2" style="fill: rgb(240, 240, 240); transform-origin: 377.325px 113.79px;" id="el4mtc6cazfec" class="animable"></polygon><polygon points="303.78 131.51 300.65 129.7 300.65 106.04 303.78 104.23 303.78 131.51" style="fill: rgb(250, 250, 250); transform-origin: 302.215px 117.87px;" id="elnnd7uq9u51" class="animable"></polygon><polygon points="374.4 90.73 371.27 88.93 371.27 65.26 374.4 63.45 374.4 90.73" style="fill: rgb(250, 250, 250); transform-origin: 372.835px 77.09px;" id="elixkdvjdsji8" class="animable"></polygon></g></g></g></g><g id="freepik--Door--inject-159" class="animable" style="transform-origin: 154.44px 263.05px;"><g id="freepik--door--inject-159" class="animable" style="transform-origin: 154.44px 263.05px;"><g id="freepik--door--inject-159" class="animable" style="transform-origin: 142.03px 282.435px;"><polygon points="204.75 136.26 204.75 374.6 79.27 447.05 79.24 208.72 204.75 136.26" style="fill: rgb(186, 104, 200); transform-origin: 141.995px 291.655px;" id="elh1r0ls3el9" class="animable"></polygon><g id="elgxlxzmtfert"><polygon points="204.75 136.69 204.75 374.61 79.27 447.06 79.24 208.73 204.75 136.69" style="opacity: 0.25; transform-origin: 141.995px 291.875px;" class="animable"></polygon></g><g id="eltazovh5bhwr"><polygon points="204.75 136.69 194.81 142.43 194.81 368.87 204.75 374.62 204.75 136.69" style="opacity: 0.15; transform-origin: 199.78px 255.655px;" class="animable"></polygon></g><polygon points="194.81 368.87 209.33 377.25 79.24 452.36 79.28 435.1 194.81 368.87" style="fill: rgb(186, 104, 200); transform-origin: 144.285px 410.615px;" id="elecvd33vuwf" class="animable"></polygon><g id="elqz6heq660no"><polygon points="194.81 368.87 209.33 377.25 79.24 452.36 79.28 435.1 194.81 368.87" style="fill: rgb(255, 255, 255); opacity: 0.8; transform-origin: 144.285px 410.615px;" class="animable"></polygon></g><polygon points="194.81 368.87 79.28 435.57 79.24 209.63 194.81 142.91 194.81 368.87" style="fill: rgb(186, 104, 200); transform-origin: 137.025px 289.24px;" id="el6yzonuovvja" class="animable"></polygon><g id="elgr5p1qn5wid"><polygon points="194.81 368.87 79.28 435.57 79.24 209.15 194.81 142.47 194.81 368.87" style="fill: rgb(255, 255, 255); opacity: 0.95; transform-origin: 137.025px 289.02px;" class="animable"></polygon></g><polygon points="140.62 166.87 136.26 169.39 136.26 407.7 140.62 405.22 140.62 166.87" style="fill: rgb(186, 104, 200); transform-origin: 138.44px 287.285px;" id="elv4qvy68u29" class="animable"></polygon><g id="elxkyp8amwe9k"><polygon points="140.62 166.87 136.26 169.39 136.26 407.7 140.62 405.22 140.62 166.87" style="fill: rgb(255, 255, 255); opacity: 0.45; transform-origin: 138.44px 287.285px;" class="animable"></polygon></g><polygon points="136.26 169.39 136.26 407.7 131.89 405.2 131.89 171.89 136.26 169.39" style="fill: rgb(186, 104, 200); transform-origin: 134.075px 288.545px;" id="elix84wq2d4dm" class="animable"></polygon><g id="elo9biid8f7a"><polygon points="136.26 169.39 136.26 407.7 131.89 405.2 131.89 171.89 136.26 169.39" style="fill: rgb(255, 255, 255); opacity: 0.25; transform-origin: 134.075px 288.545px;" class="animable"></polygon></g><g id="elcykkw5vrnop"><polygon points="194.81 142.43 194.81 178.71 79.24 245.43 79.24 209.15 194.81 142.43" style="opacity: 0.15; transform-origin: 137.025px 193.93px;" class="animable"></polygon></g><polygon points="204.75 375.03 208.98 377.46 208.98 134.25 204.75 136.69 204.75 375.03" style="fill: rgb(186, 104, 200); transform-origin: 206.865px 255.855px;" id="eltiexl62uow" class="animable"></polygon><g id="elzopwzyzd8pd"><polygon points="204.75 375.03 208.98 377.46 208.98 134.25 204.75 136.69 204.75 375.03" style="fill: rgb(255, 255, 255); opacity: 0.25; transform-origin: 206.865px 255.855px;" class="animable"></polygon></g><polygon points="208.98 377.46 225.71 367.8 225.71 105.26 62.51 199.49 62.5 462.02 79.24 452.36 79.24 209.15 208.98 134.25 208.98 377.46" style="fill: rgb(186, 104, 200); transform-origin: 144.105px 283.64px;" id="elvco7swak95g" class="animable"></polygon><g id="el0h6qy5g7hupi"><g style="opacity: 0.45; transform-origin: 144.105px 283.64px;" class="animable"><polygon points="208.98 377.46 225.71 367.8 225.71 105.26 62.51 199.49 62.5 462.02 79.24 452.36 79.24 209.15 208.98 134.25 208.98 377.46" style="fill: rgb(255, 255, 255); transform-origin: 144.105px 283.64px;" id="ela60jbxl50gd" class="animable"></polygon></g></g><polygon points="225.71 105.26 62.51 199.49 58.35 197.08 221.56 102.85 225.71 105.26" style="fill: rgb(186, 104, 200); transform-origin: 142.03px 151.17px;" id="eldmljcsuz9hv" class="animable"></polygon><g id="elenvu9vmw3qc"><polygon points="225.71 105.26 62.51 199.49 58.35 197.08 221.56 102.85 225.71 105.26" style="fill: rgb(255, 255, 255); opacity: 0.6; transform-origin: 142.03px 151.17px;" class="animable"></polygon></g><polygon points="62.5 462.02 62.51 199.49 58.35 197.08 58.35 459.63 62.5 462.02" style="fill: rgb(186, 104, 200); transform-origin: 60.43px 329.55px;" id="elj9nynh1ytpa" class="animable"></polygon><g id="el5n4igyyvm9o"><polygon points="58.35 197.08 58.35 459.63 62.5 462.02 62.51 199.49 58.35 197.08" style="fill: rgb(255, 255, 255); opacity: 0.25; transform-origin: 60.43px 329.55px;" class="animable"></polygon></g></g><g id="freepik--Awning--inject-159" class="animable" style="transform-origin: 154.44px 142.881px;"><polygon points="47.05 184.97 47.05 166.37 84.64 206.66 47.05 184.97" style="fill: rgb(224, 224, 224); transform-origin: 65.845px 186.515px;" id="elqqwp7ac88s" class="animable"></polygon><path d="M261.81,113.72c0,5.11-3.59,11.32-8,13.88l-.09.05c-4.42,2.55-8,.48-8-4.63v-9.35l16.11-9.29Z" style="fill: rgb(245, 245, 245); transform-origin: 253.775px 116.561px;" id="els1mdgjzeuhj" class="animable"></path><path d="M229.6,132.32c0,5.11-3.59,11.32-8,13.88l-.08,0c-4.42,2.56-8,.49-8-4.62v-9.35L229.6,123Z" style="fill: rgb(245, 245, 245); transform-origin: 221.56px 135.149px;" id="eluek8vn9zpn" class="animable"></path><path d="M197.38,150.92a17.71,17.71,0,0,1-8,13.88l-.08,0c-4.43,2.56-8,.49-8-4.62v-9.35l16.1-9.3Z" style="fill: rgb(245, 245, 245); transform-origin: 189.35px 153.714px;" id="elnimd2oa2zoc" class="animable"></path><path d="M165.17,169.52a17.7,17.7,0,0,1-8,13.87l-.08.05c-4.43,2.56-8,.48-8-4.63v-9.34l16.11-9.3Z" style="fill: rgb(245, 245, 245); transform-origin: 157.145px 172.353px;" id="elucufz456f0k" class="animable"></path><path d="M133,188.11c0,5.11-3.59,11.33-8,13.88l-.09,0c-4.42,2.55-8,.48-8-4.63v-9.34l16.11-9.3Z" style="fill: rgb(245, 245, 245); transform-origin: 124.965px 190.901px;" id="elxtsnzk3k10m" class="animable"></path><path d="M100.74,206.71a17.71,17.71,0,0,1-8,13.88l-.08,0c-4.43,2.55-8,.48-8-4.63v-9.34l16.1-9.3Z" style="fill: rgb(245, 245, 245); transform-origin: 92.71px 209.501px;" id="ely82gbbshua" class="animable"></path><polygon points="84.64 206.66 261.81 104.38 224.22 64.08 47.05 166.37 84.64 206.66" style="fill: rgb(250, 250, 250); transform-origin: 154.43px 135.37px;" id="el0ylfkmiqo8d" class="animable"></polygon><path d="M224,65.67l35.83,38.41-174.95,101L49,166.67l175-101m.23-1.59L47.05,166.37l37.59,40.29L261.81,104.38l-37.59-40.3Z" style="fill: rgb(224, 224, 224); transform-origin: 154.43px 135.37px;" id="elqx9iuypczpo" class="animable"></path><polygon points="100.74 197.37 63.16 157.07 79.26 147.78 116.85 188.07 100.74 197.37" style="fill: rgb(186, 104, 200); transform-origin: 90.005px 172.575px;" id="el23239a5dhc7" class="animable"></polygon><polygon points="132.95 178.77 95.37 138.48 111.47 129.18 149.06 169.47 132.95 178.77" style="fill: rgb(186, 104, 200); transform-origin: 122.215px 153.975px;" id="eldckw9jhrckm" class="animable"></polygon><polygon points="165.16 160.17 127.58 119.88 143.69 110.58 181.28 150.87 165.16 160.17" style="fill: rgb(186, 104, 200); transform-origin: 154.43px 135.375px;" id="elxuvref4olbn" class="animable"></polygon><polygon points="197.38 141.57 159.79 101.28 175.9 91.98 213.49 132.27 197.38 141.57" style="fill: rgb(186, 104, 200); transform-origin: 186.64px 116.775px;" id="el2n9wm3syi0b" class="animable"></polygon><polygon points="229.59 122.97 192 82.69 208.11 73.39 245.7 113.68 229.59 122.97" style="fill: rgb(186, 104, 200); transform-origin: 218.85px 98.18px;" id="elzk4gm8cjo9" class="animable"></polygon><path d="M245.7,123c0,5.11-3.59,11.32-8,13.88l-.08,0c-4.43,2.55-8,.48-8-4.63V123l16.11-9.3Z" style="fill: rgb(186, 104, 200); transform-origin: 237.675px 125.836px;" id="elg6fhoe4zpjp" class="animable"></path><path d="M213.49,141.62c0,5.11-3.59,11.32-8,13.88l-.08,0c-4.43,2.56-8,.49-8-4.62v-9.35l16.11-9.3Z" style="fill: rgb(186, 104, 200); transform-origin: 205.465px 144.414px;" id="eluv76xs8if5o" class="animable"></path><path d="M181.28,160.22a17.7,17.7,0,0,1-8,13.87l-.09,0c-4.42,2.56-8,.49-8-4.62v-9.35l16.11-9.3Z" style="fill: rgb(186, 104, 200); transform-origin: 173.245px 163.004px;" id="elrk8mgvihrz8" class="animable"></path><path d="M149.07,178.81c0,5.11-3.59,11.33-8,13.88l-.08.05c-4.42,2.55-8,.48-8-4.63v-9.34l16.11-9.3Z" style="fill: rgb(186, 104, 200); transform-origin: 141.045px 181.651px;" id="elsjnqx96yhxo" class="animable"></path><path d="M116.85,197.41c0,5.11-3.58,11.33-8,13.88l-.08.05c-4.43,2.55-8,.48-8-4.63v-9.34l16.1-9.3Z" style="fill: rgb(186, 104, 200); transform-origin: 108.82px 200.251px;" id="elu79knudbj7" class="animable"></path><g id="eljb2ebcp7e7k"><g style="opacity: 0.2; transform-origin: 173.25px 163.066px;" class="animable"><path d="M245.7,123c0,5.11-3.59,11.32-8,13.88l-.08,0c-4.43,2.55-8,.48-8-4.63V123l16.11-9.3Z" id="elt7oaz4znmok" class="animable" style="transform-origin: 237.675px 125.836px;"></path><path d="M213.49,141.62c0,5.11-3.59,11.32-8,13.88l-.08,0c-4.43,2.56-8,.49-8-4.62v-9.35l16.11-9.3Z" id="elfkxqkhpihzd" class="animable" style="transform-origin: 205.465px 144.414px;"></path><path d="M181.28,160.22a17.7,17.7,0,0,1-8,13.87l-.09,0c-4.42,2.56-8,.49-8-4.62v-9.35l16.11-9.3Z" id="el8c03ucxywb8" class="animable" style="transform-origin: 173.245px 163.004px;"></path><path d="M149.07,178.81c0,5.11-3.59,11.33-8,13.88l-.08.05c-4.42,2.55-8,.48-8-4.63v-9.34l16.11-9.3Z" id="elk1fppr46h5b" class="animable" style="transform-origin: 141.045px 181.651px;"></path><path d="M116.85,197.41c0,5.11-3.58,11.33-8,13.88l-.08.05c-4.43,2.55-8,.48-8-4.63v-9.34l16.1-9.3Z" id="elm9nxumc5d9p" class="animable" style="transform-origin: 108.82px 200.251px;"></path></g></g></g></g></g><g id="freepik--Plants--inject-159" class="animable" style="transform-origin: 37.777px 427.636px;"><g id="freepik--plants--inject-159" class="animable" style="transform-origin: 37.777px 427.636px;"><path d="M58.34,459.62l-12.23,7.07c.16-4.37.54-10.86-.06-15.24-3.7-26.74-14.11-35.56-19.07-48.57-5.21-13.71,1.15-18.12,9.41-15.66,7.37,2.2,18,13.11,21.4,33.06C60,433.56,59.62,448,58.34,459.62Z" style="fill: rgb(186, 104, 200); transform-origin: 42.2326px 426.631px;" id="elvppf93u64fa" class="animable"></path><g id="eltoiof3gsi8"><path d="M58.34,459.62l-12.23,7.07c.16-4.37.54-10.86-.06-15.24-3.7-26.74-14.11-35.56-19.07-48.57-5.21-13.71,1.15-18.12,9.41-15.66,7.37,2.2,18,13.11,21.4,33.06C60,433.56,59.62,448,58.34,459.62Z" style="fill: rgb(255, 255, 255); opacity: 0.65; transform-origin: 42.2326px 426.631px;" class="animable"></path></g><path d="M51.86,463.37l-1.23.71c4.38-31.18-6.28-58.23-16.8-69.39a.54.54,0,0,1,.78-.74C45.13,405.12,55.78,432.35,51.86,463.37Z" style="fill: rgb(255, 255, 255); transform-origin: 43.2031px 428.949px;" id="elu9ktg38f8qd" class="animable"></path><path d="M49.55,464.7l-6.89,4h0c-3.66-10.78-7.42-15.1-12.09-22.19-4.25-6.45-9.2-10.44-11.83-15-2.32-4-4.07-9.06-.62-12.11,5.51-4.86,12.69.28,17.63,5.84C40,430,48.6,442.83,49.55,464.7Z" style="fill: rgb(186, 104, 200); transform-origin: 32.8647px 443.08px;" id="elar5nkp6vkre" class="animable"></path><g id="elevefstchz1l"><path d="M49.55,464.7l-6.89,4h0c-3.66-10.78-7.42-15.1-12.09-22.19-4.25-6.45-9.2-10.44-11.83-15-2.32-4-4.07-9.06-.62-12.11,5.51-4.86,12.69.28,17.63,5.84C40,430,48.6,442.83,49.55,464.7Z" style="fill: rgb(255, 255, 255); opacity: 0.3; transform-origin: 32.8647px 443.08px;" class="animable"></path></g><path d="M46.72,466.33l-1,.59c-2.89-17.05-14.47-36.78-21.67-41.43a.57.57,0,0,1-.16-.77.55.55,0,0,1,.76-.16C32.1,429.39,43.65,449,46.72,466.33Z" style="fill: rgb(255, 255, 255); transform-origin: 35.262px 445.696px;" id="elku46ekfncos" class="animable"></path></g></g><g id="freepik--Shadows--inject-159" class="animable" style="transform-origin: 299.083px 420.408px;"><ellipse id="freepik--Shadow--inject-159" cx="373.39" cy="417.73" rx="61.24" ry="35.35" style="fill: rgb(224, 224, 224); transform-origin: 373.39px 417.73px;" class="animable"></ellipse><path id="freepik--shadow--inject-159" d="M173.31,464.8l144.86-83.64a1.12,1.12,0,0,0,0-2.13l-5.32-3a4,4,0,0,0-3.68,0L164.31,459.62a1.12,1.12,0,0,0,0,2.13l5.31,3.05A4.13,4.13,0,0,0,173.31,464.8Z" style="fill: rgb(224, 224, 224); transform-origin: 241.24px 420.408px;" class="animable"></path></g><g id="freepik--Sign--inject-159" class="animable animator-active" style="transform-origin: 239.199px 356.567px;"><g id="freepik--sign--inject-159" class="animable" style="transform-origin: 239.199px 356.567px;"><path d="M172.3,330.77,302.54,255.6a2.68,2.68,0,0,1,2.66-.27l3.62,2.09a2.67,2.67,0,0,1,1.08,2.43V375.77a8.38,8.38,0,0,1-3.8,6.58L175.86,457.52a2.64,2.64,0,0,1-2.68.26l-3.57-2.06a2.64,2.64,0,0,1-1.11-2.45V337.35A8.4,8.4,0,0,1,172.3,330.77Z" style="fill: rgb(186, 104, 200); transform-origin: 239.199px 356.563px;" id="elfy18siyxrxi" class="animable"></path><g id="ellb335sbqsf"><g style="opacity: 0.3; transform-origin: 239.199px 356.563px;" class="animable"><path d="M172.3,330.77,302.54,255.6a2.68,2.68,0,0,1,2.66-.27l3.62,2.09a2.67,2.67,0,0,1,1.08,2.43V375.77a8.38,8.38,0,0,1-3.8,6.58L175.86,457.52a2.64,2.64,0,0,1-2.68.26l-3.57-2.06a2.64,2.64,0,0,1-1.11-2.45V337.35A8.4,8.4,0,0,1,172.3,330.77Z" style="fill: rgb(255, 255, 255); transform-origin: 239.199px 356.563px;" id="elwgmrmfv1dh" class="animable"></path></g></g><path d="M172.06,339.41V455.33a2.85,2.85,0,0,0,.89,2.31l-3.34-1.92a2.65,2.65,0,0,1-1.11-2.45V337.35a7.65,7.65,0,0,1,1.11-3.73l3.56,2.05h0A7.65,7.65,0,0,0,172.06,339.41Z" style="fill: rgb(186, 104, 200); transform-origin: 170.827px 395.63px;" id="el1v038ipvsgg" class="animable"></path><g id="elhy171h8jmrp"><g style="opacity: 0.3; transform-origin: 170.827px 395.63px;" class="animable"><path d="M172.06,339.41V455.33a2.85,2.85,0,0,0,.89,2.31l-3.34-1.92a2.65,2.65,0,0,1-1.11-2.45V337.35a7.65,7.65,0,0,1,1.11-3.73l3.56,2.05h0A7.65,7.65,0,0,0,172.06,339.41Z" id="el5rk9gzv26sq" class="animable" style="transform-origin: 170.827px 395.63px;"></path></g></g><path d="M306.1,257.66,175.86,332.83a8.4,8.4,0,0,0-3.8,6.58V455.33c0,2.42,1.7,3.4,3.8,2.19L306.1,382.35a8.38,8.38,0,0,0,3.8-6.58V259.85C309.9,257.43,308.2,256.45,306.1,257.66Z" style="fill: rgb(186, 104, 200); transform-origin: 240.98px 357.59px;" id="el033tenxmfncz" class="animable"></path><g id="elur6mlbs3nu"><path d="M184,336.55a8.54,8.54,0,0,0-3.85,6.67c0,2.46,1.73,3.46,3.85,2.23a8.53,8.53,0,0,0,3.86-6.67C187.81,336.32,186.08,335.32,184,336.55Z" style="opacity: 0.3; transform-origin: 184.005px 341px;" class="animable"></path></g><path d="M180.1,343.22a3.84,3.84,0,0,0,.15,1.12,4.31,4.31,0,0,0,1-.44,8.51,8.51,0,0,0,3.85-6.67,3.82,3.82,0,0,0-.15-1.11,3.89,3.89,0,0,0-1,.43A8.54,8.54,0,0,0,180.1,343.22Z" style="fill: rgb(250, 250, 250); transform-origin: 182.6px 340.23px;" id="elnadd65fvqmd" class="animable"></path><g id="elog2v7a33b6p"><path d="M298,270.72a8.51,8.51,0,0,0-3.85,6.67c0,2.46,1.72,3.45,3.85,2.23a8.52,8.52,0,0,0,3.85-6.68C301.82,270.49,300.1,269.49,298,270.72Z" style="opacity: 0.3; transform-origin: 298px 275.168px;" class="animable"></path></g><path d="M294.12,277.39a4.23,4.23,0,0,0,.14,1.12,4.15,4.15,0,0,0,1-.44,8.49,8.49,0,0,0,3.86-6.67,4.2,4.2,0,0,0-.15-1.11,3.89,3.89,0,0,0-1,.43A8.51,8.51,0,0,0,294.12,277.39Z" style="fill: rgb(250, 250, 250); transform-origin: 296.62px 274.4px;" id="elz43cjsfoir" class="animable"></path><g id="elk1pficof08"><g style="opacity: 0.5; transform-origin: 240.955px 369.719px;" class="animable"><path d="M298.65,306.15a6.44,6.44,0,0,1-6.44-6.45L189,359.29a17.7,17.7,0,0,1-8.85,15.33v60a6.42,6.42,0,0,1,9.65,5.57L293,380.62c0-5.62,4-12.51,8.85-15.32v-60A6.4,6.4,0,0,1,298.65,306.15Zm1.6,58.25a21.87,21.87,0,0,0-8.82,15.28L191,437.67a8.07,8.07,0,0,0-7.64-5.51,8.59,8.59,0,0,0-1.6.16v-56.8a19.37,19.37,0,0,0,8.83-15.29l100.47-58a8.07,8.07,0,0,0,7.64,5.5,7.82,7.82,0,0,0,1.6-.16ZM183,368.57A7,7,0,0,0,186,363c0-2.16-1.31-3.15-2.93-2.22a7,7,0,0,0-2.94,5.61C180.1,368.51,181.42,369.5,183,368.57Zm115.85-66a7,7,0,0,0,2.93-5.61c0-2.16-1.31-3.15-2.93-2.21a7,7,0,0,0-2.94,5.6C296,302.5,297.27,303.5,298.89,302.56Zm0,68.3a7,7,0,0,0-2.94,5.61c0,2.16,1.32,3.15,2.94,2.21a7,7,0,0,0,2.93-5.6C301.82,370.92,300.51,369.92,298.89,370.86ZM183,436.86a7,7,0,0,0-2.94,5.61c0,2.16,1.32,3.16,2.94,2.22a7,7,0,0,0,2.93-5.61C186,436.92,184.66,435.93,183,436.86Z" style="fill: rgb(255, 255, 255); transform-origin: 240.955px 369.719px;" id="elktvca8tkegh" class="animable"></path></g></g><path d="M191.17,398.54q0-23.13,12.57-30.39t12.53,15.9q0,23.26-12.53,30.5T191.17,398.54ZM208.23,401q1.46-4.51,1.46-13.16t-1.44-11.42c-1-1.85-2.45-2.2-4.46-1a10.54,10.54,0,0,0-4.53,6.22q-1.47,4.45-1.47,13.1t1.47,11.47q1.45,2.82,4.53,1.05T208.23,401Z" style="fill: rgb(255, 255, 255); transform-origin: 203.72px 391.343px;" id="elpnj6hm25hr" class="animable"></path><path d="M221.29,402.21V360.87a4.62,4.62,0,0,1,.41-2.05,3.3,3.3,0,0,1,1.34-1.36l8.29-4.79q3.71-2.13,6.58-.9t2.88,9.16a25.69,25.69,0,0,1-1.66,9.66,21.3,21.3,0,0,1-3.71,6.33,16.18,16.18,0,0,1-3.65,3.19l-4.05,2.33v16.05c0,1.26-.84,2.38-2.53,3.35l-1.32.76Q221.29,404.1,221.29,402.21Zm9.85-28.95a6.36,6.36,0,0,0,2.31-2.83,13.72,13.72,0,0,0,1-5.84c0-2.39-.33-3.86-1-4.43a1.94,1.94,0,0,0-2.41,0l-3.37,1.94v13.2Z" style="fill: rgb(255, 255, 255); transform-origin: 231.042px 377.292px;" id="ele7unfyu6d5m" class="animable"></path><path d="M245.32,389.54c-.26-.22-.39-.76-.39-1.63V347.23a4.67,4.67,0,0,1,.39-2.08,3,3,0,0,1,1.27-1.28l14.23-8.22c.45-.26.78-.22,1,.12a4.26,4.26,0,0,1,.3,1.94v1.69a7.07,7.07,0,0,1-.3,2.28,2.21,2.21,0,0,1-1,1.25l-9.41,5.43v11.31l8.38-4.84c.46-.27.78-.23,1,.12a4.3,4.3,0,0,1,.29,1.94v1.69a7.1,7.1,0,0,1-.29,2.28,2.17,2.17,0,0,1-1,1.24L251.41,367v12.34l9.46-5.46c.42-.24.73-.2.92.12a4.24,4.24,0,0,1,.3,2v1.7a7,7,0,0,1-.3,2.31,2.1,2.1,0,0,1-.92,1.18l-14.28,8.25C246,389.7,245.58,389.76,245.32,389.54Z" style="fill: rgb(255, 255, 255); transform-origin: 253.529px 362.578px;" id="elxlfdi2lnsns" class="animable"></path><path d="M267,375.84v-42c0-1.26.83-2.37,2.49-3.32l1.26-.73a3.06,3.06,0,0,1,1.42-.5c.35,0,.65.28.87.8l9.65,18.34a28.32,28.32,0,0,1,1.52,3.87l.24-.27a28.61,28.61,0,0,1-.39-4.65V324c0-1.26.83-2.37,2.49-3.32l1-.57q2.49-1.42,2.49.45v42c0,1.26-.83,2.36-2.49,3.32l-1,.56A3.3,3.3,0,0,1,285,367c-.39,0-.68-.23-.87-.73l-10.09-19a22.82,22.82,0,0,1-1.32-3.33l-.24.27a23.77,23.77,0,0,1,.39,4.19v24.05c0,1.25-.83,2.36-2.49,3.32l-1,.56Q267,377.73,267,375.84Z" style="fill: rgb(255, 255, 255); transform-origin: 278.52px 348.211px;" id="eljnl23hycnqf" class="animable"></path><path d="M207.89,334c0,.56.16.75.48.56.59-.34,1.35-1.75,2.28-4.25.28-.74.56-1.51.84-2.32l.81-2.46c1.17-3.66,1.84-5.76,2-6.28a1,1,0,0,1,.38-.54.94.94,0,0,1,.41-.14.47.47,0,0,1,.29.07c.19.13.23.34.14.63-.31.95-.6,2-.87,3.08L213,329.53c-.18.72-.36,1.43-.55,2.13s-.4,1.39-.64,2.1-.49,1.4-.76,2.08-.56,1.33-.85,1.94-.61,1.18-.92,1.69a6.19,6.19,0,0,1-1.89,2.15.63.63,0,0,1-.34.08.19.19,0,0,1-.2-.18.34.34,0,0,1,.05-.29,2,2,0,0,1,.21-.27c1.22-1.31,2.38-3.61,3.47-6.88.31-1,.61-1.94.88-2.95q.47-1.9.6-2.49l-.67,1.76q-2.1,5.24-3.56,6.09c-.66.38-1.1.25-1.33-.39a2.14,2.14,0,0,1-.1-.57v-.33a24.47,24.47,0,0,1,.94-4.62l1.39-5.1a12.09,12.09,0,0,0,.39-1.81.65.65,0,0,0-.08-.4.34.34,0,0,0-.18-.14l-.17-.07c-.06,0-.08-.07-.08-.17a.75.75,0,0,1,.1-.34,2.49,2.49,0,0,1,.28-.41,2.79,2.79,0,0,1,.68-.6,1.45,1.45,0,0,1,.52-.21.67.67,0,0,1,.3.06.65.65,0,0,1,.24.58,5.61,5.61,0,0,1-.12,1c-.08.42-.18.89-.3,1.4s-.28,1.06-.44,1.65l-1,3.54a22.65,22.65,0,0,0-1,4.3Z" style="fill: rgb(186, 104, 200); transform-origin: 210.983px 330.135px;" id="elzbgfnb85pqd" class="animable"></path><path d="M214.57,329.4a9.71,9.71,0,0,1,.19-1.59,13.15,13.15,0,0,1,.45-1.62,17.28,17.28,0,0,1,.65-1.63,13.27,13.27,0,0,1,.82-1.5A6,6,0,0,1,218.6,321c.76-.44,1.26-.31,1.52.37a2.53,2.53,0,0,1,.12.94,4.57,4.57,0,0,1-.16,1.16,7.45,7.45,0,0,1-.44,1.16,9.47,9.47,0,0,1-.68,1.11,11.8,11.8,0,0,1-.84,1,9.63,9.63,0,0,1-2,1.63q0,.14,0,.39a3.32,3.32,0,0,0,0,.53,1.08,1.08,0,0,0,.16.45.44.44,0,0,0,.69.13,4.83,4.83,0,0,0,1.51-1.47,5.11,5.11,0,0,0,.42-.66.93.93,0,0,1,.28-.38c.08-.05.15,0,.21.07a.69.69,0,0,1,.09.38,2.4,2.4,0,0,1-.2.93,6.29,6.29,0,0,1-2.49,2.55c-.66.38-1.18.42-1.57.13A2.36,2.36,0,0,1,214.57,329.4Zm3.89-7.14a4.07,4.07,0,0,0-1.35,2.05,20.15,20.15,0,0,0-.88,3.12,6.62,6.62,0,0,0,1.93-2.29,5.09,5.09,0,0,0,.75-2.27C218.91,322.29,218.76,322.09,218.46,322.26Z" style="fill: rgb(186, 104, 200); transform-origin: 217.393px 326.177px;" id="ely2yll3hm00n" class="animable"></path><path d="M220.56,327.49a1.56,1.56,0,0,1,.09-.56,2.56,2.56,0,0,1,.22-.53,1.69,1.69,0,0,1,.58-.68q.27-.15.27.21c0,.61.15.95.46,1a.48.48,0,0,0,.34-.07,1.25,1.25,0,0,0,.31-.23,1.48,1.48,0,0,0,.23-.3,1.43,1.43,0,0,0,.24-.75,1.22,1.22,0,0,0-.12-.58,2.52,2.52,0,0,0-.3-.45l-.38-.5a3.25,3.25,0,0,1-.79-2.15,4.68,4.68,0,0,1,.63-2.17,4.89,4.89,0,0,1,1.84-2c.66-.38,1.17-.46,1.54-.24a1,1,0,0,1,.45.93,2.5,2.5,0,0,1-.4,1.35,1.44,1.44,0,0,1-.72.69.19.19,0,0,1-.24-.07.51.51,0,0,1,0-.38,2.09,2.09,0,0,0,0-.49,1.22,1.22,0,0,0-.06-.41.58.58,0,0,0-.18-.24.44.44,0,0,0-.49,0,2.1,2.1,0,0,0-.42.32,1.65,1.65,0,0,0-.29.39,1.82,1.82,0,0,0-.26.93,1.79,1.79,0,0,0,.12.73,2.58,2.58,0,0,0,.29.51l.38.46a2.82,2.82,0,0,1,.38.51,2.42,2.42,0,0,1,.42,1.33,3.7,3.7,0,0,1-.21,1.26,6,6,0,0,1-.55,1.1,5,5,0,0,1-1.63,1.66,1.43,1.43,0,0,1-1.35.23A.87.87,0,0,1,220.56,327.49Z" style="fill: rgb(186, 104, 200); transform-origin: 223.365px 322.873px;" id="el3x6tlffc2pb" class="animable"></path><path d="M227.51,324.73a.7.7,0,0,1-.24-.31,1.31,1.31,0,0,1-.08-.53,2.32,2.32,0,0,1,.09-.65,2.94,2.94,0,0,1,.24-.56,1.76,1.76,0,0,1,.55-.61,3.92,3.92,0,0,1,.49-.23.87.87,0,0,1,.38,0q.42,0,.42.57a3.12,3.12,0,0,1-.33,1.35,2.27,2.27,0,0,1-.63.87,1,1,0,0,1-.54.24A.48.48,0,0,1,227.51,324.73Zm1.11-3.76c-.22.13-.33-.22-.33-1a23.59,23.59,0,0,1,.67-4.76,27.11,27.11,0,0,1,1.36-4.56,4,4,0,0,1,.82-1.38,2.27,2.27,0,0,1,.39-.3,1.76,1.76,0,0,1,.32-.15.85.85,0,0,1,.25,0,.22.22,0,0,1,.23.23,1.48,1.48,0,0,1-.13.55c-.09.22-.23.58-.43,1.1s-.42,1.17-.68,2q-.94,2.88-1.84,6.6c-.07.25-.12.47-.16.67s-.09.37-.13.52A1,1,0,0,1,228.62,321Z" style="fill: rgb(186, 104, 200); transform-origin: 229.759px 316.84px;" id="elrmaw8i5uxkn" class="animable"></path><path d="M238.55,317.64a5.67,5.67,0,0,1-1.42,1.89c-.35.2-.58.1-.72-.29a1.23,1.23,0,0,1-.07-.42,5.6,5.6,0,0,1,.14-1.2q.14-.62.27-1.17l.58-2.35c.23-1,.36-1.6.41-2s0-.57,0-.65a.6.6,0,0,0-.21-.18l-.23-.1a.17.17,0,0,1-.12-.19.89.89,0,0,1,.1-.35,2.27,2.27,0,0,1,.26-.4,2.55,2.55,0,0,1,.66-.59,1.45,1.45,0,0,1,.54-.21.47.47,0,0,1,.32,0,.61.61,0,0,1,.25.56,5.62,5.62,0,0,1-.11,1c-.07.39-.15.8-.26,1.24s-.22.92-.34,1.4l-.37,1.44a24.32,24.32,0,0,0-.53,2.52,11.72,11.72,0,0,0,1.66-3,46,46,0,0,0,2-5.54,1.52,1.52,0,0,1,.24-.54,2.1,2.1,0,0,1,.61-.48c.39-.2.59-.16.6.14a2.1,2.1,0,0,1-.11.67c-.08.27-.15.49-.2.67l-.26.86a14.58,14.58,0,0,0-.78,3.86c0,.61.12.95.37,1q.1,0,.33-.09a2,2,0,0,0,.52-.51,5.37,5.37,0,0,0,.57-.9,10.2,10.2,0,0,0,.51-1.14c.15-.41.29-.83.41-1.27a9.26,9.26,0,0,0,.36-2.27,3.19,3.19,0,0,0-.43-2c-.1-.09-.07-.29.09-.59a1.9,1.9,0,0,1,.77-.77c.43-.25.72-.1.87.46a3.65,3.65,0,0,1,.1,1,10.19,10.19,0,0,1-.19,1.73,17.06,17.06,0,0,1-.53,2,19.54,19.54,0,0,1-.76,2,15.88,15.88,0,0,1-.9,1.75,6.18,6.18,0,0,1-1.87,2.2c-1,.57-1.49,0-1.49-1.7a9.77,9.77,0,0,1,.08-1.19A27,27,0,0,1,238.55,317.64Z" style="fill: rgb(186, 104, 200); transform-origin: 241.136px 312.602px;" id="elxtmq2zemua" class="animable"></path><path d="M246.59,310.91a9.59,9.59,0,0,1,.19-1.58,12.81,12.81,0,0,1,.45-1.63,15.8,15.8,0,0,1,.65-1.63,13.42,13.42,0,0,1,.82-1.5,6,6,0,0,1,1.92-2.06c.76-.44,1.26-.31,1.52.38a2.66,2.66,0,0,1,.12.93,4.71,4.71,0,0,1-.16,1.17,6.52,6.52,0,0,1-.45,1.15,8,8,0,0,1-.67,1.11,9.3,9.3,0,0,1-.85,1,9.58,9.58,0,0,1-2,1.63,1.92,1.92,0,0,0,0,.39,2.41,2.41,0,0,0,0,.53,1.13,1.13,0,0,0,.16.46c.16.26.39.3.69.13a5,5,0,0,0,1.5-1.47,4.94,4.94,0,0,0,.43-.67,1,1,0,0,1,.28-.38.15.15,0,0,1,.21.07.69.69,0,0,1,.09.38,2.4,2.4,0,0,1-.2.93,6.28,6.28,0,0,1-2.5,2.56,1.38,1.38,0,0,1-1.57.13A2.42,2.42,0,0,1,246.59,310.91Zm3.88-7.13a4.09,4.09,0,0,0-1.34,2.05,18.69,18.69,0,0,0-.88,3.11,6.69,6.69,0,0,0,1.93-2.28,5.17,5.17,0,0,0,.75-2.27C250.93,303.8,250.78,303.6,250.47,303.78Z" style="fill: rgb(186, 104, 200); transform-origin: 249.412px 307.69px;" id="eltk28y80lhr" class="animable"></path><path d="M262.16,302.67c0,.55.14.73.43.57a1.81,1.81,0,0,0,.49-.41,1.42,1.42,0,0,1,.27-.28c.09-.05.14,0,.14.12a3,3,0,0,1-.6,1.65,2,2,0,0,1-1.29,1c-.29,0-.5-.14-.64-.51a1.63,1.63,0,0,1-.1-.57,9.37,9.37,0,0,1,.06-1,9.8,9.8,0,0,1-1.53,3.21,2.82,2.82,0,0,1-.78.7,1.09,1.09,0,0,1-.71.18.76.76,0,0,1-.52-.33,3,3,0,0,1-.39-1.86,11.37,11.37,0,0,1,.7-3.5,14.34,14.34,0,0,1,1.53-3.2,5.79,5.79,0,0,1,1.72-1.91.87.87,0,0,1,1.3.24,3.21,3.21,0,0,1,.81-1.46.77.77,0,0,1,.58-.14c.24.1.33.25.26.47a42.73,42.73,0,0,0-1.72,6.67C262.16,302.44,262.16,302.55,262.16,302.67Zm-3.7,2.17c0,.71.17,1,.52.77a3.6,3.6,0,0,0,1-1.45,23.86,23.86,0,0,0,1.48-4.37c.14-.54.26-1.06.35-1.58s-.14-.61-.38-.67a.53.53,0,0,0-.35.11,2.16,2.16,0,0,0-.56.55,7.23,7.23,0,0,0-.61,1,10.08,10.08,0,0,0-.55,1.27q-.26.69-.45,1.44A12.13,12.13,0,0,0,258.46,304.84Z" style="fill: rgb(186, 104, 200); transform-origin: 260.441px 301.247px;" id="eladerphyrdvg" class="animable"></path><path d="M264.37,303.54a.51.51,0,0,1-.21-.17.4.4,0,0,1-.09-.24,1.38,1.38,0,0,1,0-.31c0-.13.06-.3.11-.49a36.09,36.09,0,0,0,1.36-6.76c0-.28-.09-.44-.22-.48l-.13,0s-.06-.07-.07-.18a.82.82,0,0,1,.09-.34,1.63,1.63,0,0,1,.22-.38,2,2,0,0,1,.59-.54,1.23,1.23,0,0,1,.47-.19.52.52,0,0,1,.29.07.61.61,0,0,1,.26.53,4.93,4.93,0,0,1-.06.75c0,.27-.09.54-.15.8s-.12.53-.17.77-.1.42-.12.53a4.07,4.07,0,0,0,0,.41,1.6,1.6,0,0,0,.2-.47L267,296a14.71,14.71,0,0,1,1.69-3.72,1.88,1.88,0,0,1,.57-.52c.22-.13.41-.13.54,0a.78.78,0,0,1,.22.57,3.34,3.34,0,0,1,0,.66,2.91,2.91,0,0,1-.15.56,1.42,1.42,0,0,1-.53.8.16.16,0,0,1-.16,0l-.15-.09a.4.4,0,0,0-.42,0,1.68,1.68,0,0,0-.49.64,10.75,10.75,0,0,0-.6,1.26,32.31,32.31,0,0,0-1.72,5.14l-.29,1.2c-.08.3-.15.52-.2.66a.67.67,0,0,1-.26.31.76.76,0,0,1-.34.11A.59.59,0,0,1,264.37,303.54Z" style="fill: rgb(186, 104, 200); transform-origin: 267.049px 297.626px;" id="elw9jiran0pa8" class="animable"></path><path d="M269.91,297.45a9.84,9.84,0,0,1,.19-1.59,13.15,13.15,0,0,1,.45-1.62,15,15,0,0,1,.65-1.63,11.85,11.85,0,0,1,.82-1.5,6,6,0,0,1,1.92-2.06c.76-.44,1.26-.31,1.52.37a2.75,2.75,0,0,1,.12.94,4.71,4.71,0,0,1-.16,1.17,6.52,6.52,0,0,1-.45,1.15,8,8,0,0,1-.67,1.11,10.32,10.32,0,0,1-.85,1,9.58,9.58,0,0,1-2,1.63,1.92,1.92,0,0,0,0,.39,2.46,2.46,0,0,0,0,.53,1,1,0,0,0,.16.45.45.45,0,0,0,.69.14,5,5,0,0,0,1.5-1.47,4,4,0,0,0,.42-.67,1,1,0,0,1,.29-.38c.08-.05.15,0,.21.07a.69.69,0,0,1,.09.38,2.4,2.4,0,0,1-.2.93,6.28,6.28,0,0,1-2.5,2.56,1.39,1.39,0,0,1-1.57.12A2.39,2.39,0,0,1,269.91,297.45Zm3.88-7.14a4.13,4.13,0,0,0-1.34,2.06,18.69,18.69,0,0,0-.88,3.11,6.79,6.79,0,0,0,1.93-2.28,5.17,5.17,0,0,0,.75-2.27C274.25,290.34,274.1,290.14,273.79,290.31Z" style="fill: rgb(186, 104, 200); transform-origin: 272.732px 294.226px;" id="elvxfwmts02" class="animable"></path><g id="elj3645nl16p"><g style="opacity: 0.7; transform-origin: 240.991px 315.247px;" class="animable"><path d="M207.89,334c0,.56.16.75.48.56.59-.34,1.35-1.75,2.28-4.25.28-.74.56-1.51.84-2.32l.81-2.46c1.17-3.66,1.84-5.76,2-6.28a1,1,0,0,1,.38-.54.94.94,0,0,1,.41-.14.47.47,0,0,1,.29.07c.19.13.23.34.14.63-.31.95-.6,2-.87,3.08L213,329.53c-.18.72-.36,1.43-.55,2.13s-.4,1.39-.64,2.1-.49,1.4-.76,2.08-.56,1.33-.85,1.94-.61,1.18-.92,1.69a6.19,6.19,0,0,1-1.89,2.15.63.63,0,0,1-.34.08.19.19,0,0,1-.2-.18.34.34,0,0,1,.05-.29,2,2,0,0,1,.21-.27c1.22-1.31,2.38-3.61,3.47-6.88.31-1,.61-1.94.88-2.95q.47-1.9.6-2.49l-.67,1.76q-2.1,5.24-3.56,6.09c-.66.38-1.1.25-1.33-.39a2.14,2.14,0,0,1-.1-.57v-.33a24.47,24.47,0,0,1,.94-4.62l1.39-5.1a12.09,12.09,0,0,0,.39-1.81.65.65,0,0,0-.08-.4.34.34,0,0,0-.18-.14l-.17-.07c-.06,0-.08-.07-.08-.17a.75.75,0,0,1,.1-.34,2.49,2.49,0,0,1,.28-.41,2.79,2.79,0,0,1,.68-.6,1.45,1.45,0,0,1,.52-.21.67.67,0,0,1,.3.06.65.65,0,0,1,.24.58,5.61,5.61,0,0,1-.12,1c-.08.42-.18.89-.3,1.4s-.28,1.06-.44,1.65l-1,3.54a22.65,22.65,0,0,0-1,4.3Z" style="fill: rgb(255, 255, 255); transform-origin: 210.983px 330.135px;" id="elpz07hvb8a3k" class="animable"></path><path d="M214.57,329.4a9.71,9.71,0,0,1,.19-1.59,13.15,13.15,0,0,1,.45-1.62,17.28,17.28,0,0,1,.65-1.63,13.27,13.27,0,0,1,.82-1.5A6,6,0,0,1,218.6,321c.76-.44,1.26-.31,1.52.37a2.53,2.53,0,0,1,.12.94,4.57,4.57,0,0,1-.16,1.16,7.45,7.45,0,0,1-.44,1.16,9.47,9.47,0,0,1-.68,1.11,11.8,11.8,0,0,1-.84,1,9.63,9.63,0,0,1-2,1.63q0,.14,0,.39a3.32,3.32,0,0,0,0,.53,1.08,1.08,0,0,0,.16.45.44.44,0,0,0,.69.13,4.83,4.83,0,0,0,1.51-1.47,5.11,5.11,0,0,0,.42-.66.93.93,0,0,1,.28-.38c.08-.05.15,0,.21.07a.69.69,0,0,1,.09.38,2.4,2.4,0,0,1-.2.93,6.29,6.29,0,0,1-2.49,2.55c-.66.38-1.18.42-1.57.13A2.36,2.36,0,0,1,214.57,329.4Zm3.89-7.14a4.07,4.07,0,0,0-1.35,2.05,20.15,20.15,0,0,0-.88,3.12,6.62,6.62,0,0,0,1.93-2.29,5.09,5.09,0,0,0,.75-2.27C218.91,322.29,218.76,322.09,218.46,322.26Z" style="fill: rgb(255, 255, 255); transform-origin: 217.393px 326.177px;" id="elqdh4kumqyv" class="animable"></path><path d="M220.56,327.49a1.56,1.56,0,0,1,.09-.56,2.56,2.56,0,0,1,.22-.53,1.69,1.69,0,0,1,.58-.68q.27-.15.27.21c0,.61.15.95.46,1a.48.48,0,0,0,.34-.07,1.25,1.25,0,0,0,.31-.23,1.48,1.48,0,0,0,.23-.3,1.43,1.43,0,0,0,.24-.75,1.22,1.22,0,0,0-.12-.58,2.52,2.52,0,0,0-.3-.45l-.38-.5a3.25,3.25,0,0,1-.79-2.15,4.68,4.68,0,0,1,.63-2.17,4.89,4.89,0,0,1,1.84-2c.66-.38,1.17-.46,1.54-.24a1,1,0,0,1,.45.93,2.5,2.5,0,0,1-.4,1.35,1.44,1.44,0,0,1-.72.69.19.19,0,0,1-.24-.07.51.51,0,0,1,0-.38,2.09,2.09,0,0,0,0-.49,1.22,1.22,0,0,0-.06-.41.58.58,0,0,0-.18-.24.44.44,0,0,0-.49,0,2.1,2.1,0,0,0-.42.32,1.65,1.65,0,0,0-.29.39,1.82,1.82,0,0,0-.26.93,1.79,1.79,0,0,0,.12.73,2.58,2.58,0,0,0,.29.51l.38.46a2.82,2.82,0,0,1,.38.51,2.42,2.42,0,0,1,.42,1.33,3.7,3.7,0,0,1-.21,1.26,6,6,0,0,1-.55,1.1,5,5,0,0,1-1.63,1.66,1.43,1.43,0,0,1-1.35.23A.87.87,0,0,1,220.56,327.49Z" style="fill: rgb(255, 255, 255); transform-origin: 223.365px 322.873px;" id="elgsrowdby3f" class="animable"></path><path d="M227.51,324.73a.7.7,0,0,1-.24-.31,1.31,1.31,0,0,1-.08-.53,2.32,2.32,0,0,1,.09-.65,2.94,2.94,0,0,1,.24-.56,1.76,1.76,0,0,1,.55-.61,3.92,3.92,0,0,1,.49-.23.87.87,0,0,1,.38,0q.42,0,.42.57a3.12,3.12,0,0,1-.33,1.35,2.27,2.27,0,0,1-.63.87,1,1,0,0,1-.54.24A.48.48,0,0,1,227.51,324.73Zm1.11-3.76c-.22.13-.33-.22-.33-1a23.59,23.59,0,0,1,.67-4.76,27.11,27.11,0,0,1,1.36-4.56,4,4,0,0,1,.82-1.38,2.27,2.27,0,0,1,.39-.3,1.76,1.76,0,0,1,.32-.15.85.85,0,0,1,.25,0,.22.22,0,0,1,.23.23,1.48,1.48,0,0,1-.13.55c-.09.22-.23.58-.43,1.1s-.42,1.17-.68,2q-.94,2.88-1.84,6.6c-.07.25-.12.47-.16.67s-.09.37-.13.52A1,1,0,0,1,228.62,321Z" style="fill: rgb(255, 255, 255); transform-origin: 229.759px 316.84px;" id="ele7r0rtzm1ap" class="animable"></path><path d="M238.55,317.64a5.67,5.67,0,0,1-1.42,1.89c-.35.2-.58.1-.72-.29a1.23,1.23,0,0,1-.07-.42,5.6,5.6,0,0,1,.14-1.2q.14-.62.27-1.17l.58-2.35c.23-1,.36-1.6.41-2s0-.57,0-.65a.6.6,0,0,0-.21-.18l-.23-.1a.17.17,0,0,1-.12-.19.89.89,0,0,1,.1-.35,2.27,2.27,0,0,1,.26-.4,2.55,2.55,0,0,1,.66-.59,1.45,1.45,0,0,1,.54-.21.47.47,0,0,1,.32,0,.61.61,0,0,1,.25.56,5.62,5.62,0,0,1-.11,1c-.07.39-.15.8-.26,1.24s-.22.92-.34,1.4l-.37,1.44a24.32,24.32,0,0,0-.53,2.52,11.72,11.72,0,0,0,1.66-3,46,46,0,0,0,2-5.54,1.52,1.52,0,0,1,.24-.54,2.1,2.1,0,0,1,.61-.48c.39-.2.59-.16.6.14a2.1,2.1,0,0,1-.11.67c-.08.27-.15.49-.2.67l-.26.86a14.58,14.58,0,0,0-.78,3.86c0,.61.12.95.37,1q.1,0,.33-.09a2,2,0,0,0,.52-.51,5.37,5.37,0,0,0,.57-.9,10.2,10.2,0,0,0,.51-1.14c.15-.41.29-.83.41-1.27a9.26,9.26,0,0,0,.36-2.27,3.19,3.19,0,0,0-.43-2c-.1-.09-.07-.29.09-.59a1.9,1.9,0,0,1,.77-.77c.43-.25.72-.1.87.46a3.65,3.65,0,0,1,.1,1,10.19,10.19,0,0,1-.19,1.73,17.06,17.06,0,0,1-.53,2,19.54,19.54,0,0,1-.76,2,15.88,15.88,0,0,1-.9,1.75,6.18,6.18,0,0,1-1.87,2.2c-1,.57-1.49,0-1.49-1.7a9.77,9.77,0,0,1,.08-1.19A27,27,0,0,1,238.55,317.64Z" style="fill: rgb(255, 255, 255); transform-origin: 241.136px 312.602px;" id="elt3mzj9rhyup" class="animable"></path><path d="M246.59,310.91a9.59,9.59,0,0,1,.19-1.58,12.81,12.81,0,0,1,.45-1.63,15.8,15.8,0,0,1,.65-1.63,13.42,13.42,0,0,1,.82-1.5,6,6,0,0,1,1.92-2.06c.76-.44,1.26-.31,1.52.38a2.66,2.66,0,0,1,.12.93,4.71,4.71,0,0,1-.16,1.17,6.52,6.52,0,0,1-.45,1.15,8,8,0,0,1-.67,1.11,9.3,9.3,0,0,1-.85,1,9.58,9.58,0,0,1-2,1.63,1.92,1.92,0,0,0,0,.39,2.41,2.41,0,0,0,0,.53,1.13,1.13,0,0,0,.16.46c.16.26.39.3.69.13a5,5,0,0,0,1.5-1.47,4.94,4.94,0,0,0,.43-.67,1,1,0,0,1,.28-.38.15.15,0,0,1,.21.07.69.69,0,0,1,.09.38,2.4,2.4,0,0,1-.2.93,6.28,6.28,0,0,1-2.5,2.56,1.38,1.38,0,0,1-1.57.13A2.42,2.42,0,0,1,246.59,310.91Zm3.88-7.13a4.09,4.09,0,0,0-1.34,2.05,18.69,18.69,0,0,0-.88,3.11,6.69,6.69,0,0,0,1.93-2.28,5.17,5.17,0,0,0,.75-2.27C250.93,303.8,250.78,303.6,250.47,303.78Z" style="fill: rgb(255, 255, 255); transform-origin: 249.412px 307.69px;" id="elleamehtnfae" class="animable"></path><path d="M262.16,302.67c0,.55.14.73.43.57a1.81,1.81,0,0,0,.49-.41,1.42,1.42,0,0,1,.27-.28c.09-.05.14,0,.14.12a3,3,0,0,1-.6,1.65,2,2,0,0,1-1.29,1c-.29,0-.5-.14-.64-.51a1.63,1.63,0,0,1-.1-.57,9.37,9.37,0,0,1,.06-1,9.8,9.8,0,0,1-1.53,3.21,2.82,2.82,0,0,1-.78.7,1.09,1.09,0,0,1-.71.18.76.76,0,0,1-.52-.33,3,3,0,0,1-.39-1.86,11.37,11.37,0,0,1,.7-3.5,14.34,14.34,0,0,1,1.53-3.2,5.79,5.79,0,0,1,1.72-1.91.87.87,0,0,1,1.3.24,3.21,3.21,0,0,1,.81-1.46.77.77,0,0,1,.58-.14c.24.1.33.25.26.47a42.73,42.73,0,0,0-1.72,6.67C262.16,302.44,262.16,302.55,262.16,302.67Zm-3.7,2.17c0,.71.17,1,.52.77a3.6,3.6,0,0,0,1-1.45,23.86,23.86,0,0,0,1.48-4.37c.14-.54.26-1.06.35-1.58s-.14-.61-.38-.67a.53.53,0,0,0-.35.11,2.16,2.16,0,0,0-.56.55,7.23,7.23,0,0,0-.61,1,10.08,10.08,0,0,0-.55,1.27q-.26.69-.45,1.44A12.13,12.13,0,0,0,258.46,304.84Z" style="fill: rgb(255, 255, 255); transform-origin: 260.441px 301.247px;" id="elq0pp6b2anj" class="animable"></path><path d="M264.37,303.54a.51.51,0,0,1-.21-.17.4.4,0,0,1-.09-.24,1.38,1.38,0,0,1,0-.31c0-.13.06-.3.11-.49a36.09,36.09,0,0,0,1.36-6.76c0-.28-.09-.44-.22-.48l-.13,0s-.06-.07-.07-.18a.82.82,0,0,1,.09-.34,1.63,1.63,0,0,1,.22-.38,2,2,0,0,1,.59-.54,1.23,1.23,0,0,1,.47-.19.52.52,0,0,1,.29.07.61.61,0,0,1,.26.53,4.93,4.93,0,0,1-.06.75c0,.27-.09.54-.15.8s-.12.53-.17.77-.1.42-.12.53a4.07,4.07,0,0,0,0,.41,1.6,1.6,0,0,0,.2-.47L267,296a14.71,14.71,0,0,1,1.69-3.72,1.88,1.88,0,0,1,.57-.52c.22-.13.41-.13.54,0a.78.78,0,0,1,.22.57,3.34,3.34,0,0,1,0,.66,2.91,2.91,0,0,1-.15.56,1.42,1.42,0,0,1-.53.8.16.16,0,0,1-.16,0l-.15-.09a.4.4,0,0,0-.42,0,1.68,1.68,0,0,0-.49.64,10.75,10.75,0,0,0-.6,1.26,32.31,32.31,0,0,0-1.72,5.14l-.29,1.2c-.08.3-.15.52-.2.66a.67.67,0,0,1-.26.31.76.76,0,0,1-.34.11A.59.59,0,0,1,264.37,303.54Z" style="fill: rgb(255, 255, 255); transform-origin: 267.049px 297.626px;" id="elcjkx2tajlzb" class="animable"></path><path d="M269.91,297.45a9.84,9.84,0,0,1,.19-1.59,13.15,13.15,0,0,1,.45-1.62,15,15,0,0,1,.65-1.63,11.85,11.85,0,0,1,.82-1.5,6,6,0,0,1,1.92-2.06c.76-.44,1.26-.31,1.52.37a2.75,2.75,0,0,1,.12.94,4.71,4.71,0,0,1-.16,1.17,6.52,6.52,0,0,1-.45,1.15,8,8,0,0,1-.67,1.11,10.32,10.32,0,0,1-.85,1,9.58,9.58,0,0,1-2,1.63,1.92,1.92,0,0,0,0,.39,2.46,2.46,0,0,0,0,.53,1,1,0,0,0,.16.45.45.45,0,0,0,.69.14,5,5,0,0,0,1.5-1.47,4,4,0,0,0,.42-.67,1,1,0,0,1,.29-.38c.08-.05.15,0,.21.07a.69.69,0,0,1,.09.38,2.4,2.4,0,0,1-.2.93,6.28,6.28,0,0,1-2.5,2.56,1.39,1.39,0,0,1-1.57.12A2.39,2.39,0,0,1,269.91,297.45Zm3.88-7.14a4.13,4.13,0,0,0-1.34,2.06,18.69,18.69,0,0,0-.88,3.11,6.79,6.79,0,0,0,1.93-2.28,5.17,5.17,0,0,0,.75-2.27C274.25,290.34,274.1,290.14,273.79,290.31Z" style="fill: rgb(255, 255, 255); transform-origin: 272.732px 294.226px;" id="elbjmj2kda6fh" class="animable"></path></g></g></g></g><g id="freepik--Character--inject-159" class="animable" style="transform-origin: 378.541px 282.823px;"><g id="freepik--character--inject-159" class="animable" style="transform-origin: 378.541px 282.823px;"><g id="freepik--Bottom--inject-159" class="animable" style="transform-origin: 369.855px 333.732px;"><path d="M413.17,395c-.9-12-.14-20.26-1.17-39h0c-.09-4.8-.27-10-.6-14.52-1.12-15.38-3.56-20.64-3.78-23.61,0,0-.42-23.93-1.46-57.58-.48-15.84-5.21-20.63-9-29H352.33c-5,20.73-6.44,65.95-6.29,87.32.07,10.9.6,67,.45,70.8-.2,5.54-1,9.48-2.88,11.48a64.15,64.15,0,0,1-15.54,12c.73,1.87,10.28,2.82,13.28,1.39,4.79-2.27,12.46-8.07,14.16-9.16,8.17-5.29,6-12.31,6-12.31v-.51c.08-2.64,9.33-41.53,9.86-50.58.46-7.78-.52-21-.52-21L376,287.69s3.18,19.48,6.41,32.78c2.62,10.82,6.94,29.29,9.9,42.62h0c2.83,15.34,6.4,25.84,7.12,33.52.21,1.84,2.95,20.27,3.84,24.39s10.13,4.24,10.73-2.86C414.41,413.42,413.33,397.24,413.17,395Z" style="fill: rgb(255, 189, 167); transform-origin: 371.081px 327.565px;" id="elutjh7kdx6gj" class="animable"></path><path d="M376,287.69l-3.78-23.77s-14.6-1.69-19.91-6.64c0,0,6.69,9.18,16.6,10.67l4.17,19.71-2.2,32.7Z" style="fill: rgb(177, 102, 104); transform-origin: 364.155px 288.82px;" id="elinxr78e83qc" class="animable"></path><path d="M321.73,418.18c0,.74-.21,3.7,1.32,4.86,1.77,1.35,6.86,3.44,13.36,2.25s9.94-3.39,12.44-5.7,6-5.57,8.92-6.38c2.72-.75,5.64-2.15,6.47-3s.21-5.34.21-5.34Z" style="fill: rgb(38, 50, 56); transform-origin: 343.196px 415.256px;" id="elxpx3raz4krr" class="animable"></path><path d="M361.51,392.2a1,1,0,0,1,1,.82c.26,1,.47,3.11,1,4.78a30.14,30.14,0,0,1,1.15,9.05c-.25,1.93-4.66,3.51-7.47,4.74a36.62,36.62,0,0,0-9,6.31c-2.94,2.67-9.27,5.55-13.53,5.84-6.51.45-10.83-1.06-12.26-3.31-1.78-2.77-.9-5.23,6.39-9.06,1.38-.73,6.2-3.92,7.84-5.06a39.27,39.27,0,0,0,4.88-4,12.84,12.84,0,0,0,2.35-2.65,14.11,14.11,0,0,0,1.17-3.26c.25-1.05.5-2.3,1.51-2.75a3.18,3.18,0,0,1,1.34-.18,20.83,20.83,0,0,1,5.51.59,5.71,5.71,0,0,1,2.47,1.06,4.76,4.76,0,0,1,.57,2.36c0,.43.06.87.08,1.3,0,.18,0,.52.21.43s.49-.75.57-1c.18-.5.29-1,.49-1.51a8,8,0,0,1,.84-1.62,7.43,7.43,0,0,1,1.12-1.26c.38-.33,1-.62,1.71-1.11Z" style="fill: rgb(55, 71, 79); transform-origin: 343.141px 408.01px;" id="elcwgacahftxw" class="animable"></path><path d="M327.69,412c9.47.12,13.06,6.44,13.66,10a22.24,22.24,0,0,1-6.62,1.76c-6.51.45-11.1-1.05-12.53-3.29C320.52,417.83,321.14,414.87,327.69,412Z" style="fill: rgb(250, 250, 250); transform-origin: 331.378px 417.92px;" id="eldfzcmubrz75" class="animable"></path><path d="M342.13,412a.39.39,0,0,0,.28-.12.45.45,0,0,0,0-.64c-1.4-1.52-5.6-4.14-9-3.58a.46.46,0,1,0,.15.9c3.18-.51,7.07,2.09,8.18,3.29A.44.44,0,0,0,342.13,412Z" style="fill: rgb(240, 240, 240); transform-origin: 337.755px 409.793px;" id="elm0q92o1j3p" class="animable"></path><path d="M346.06,409.48a.46.46,0,0,0,.31-.76c-1.4-1.52-5.6-4.15-9-3.58a.46.46,0,1,0,.15.9c3.18-.52,7.07,2.09,8.18,3.29A.46.46,0,0,0,346.06,409.48Z" style="fill: rgb(240, 240, 240); transform-origin: 341.705px 407.27px;" id="elxn7pwfvpt2" class="animable"></path><path d="M349.67,406.6a.4.4,0,0,0,.29-.12.45.45,0,0,0,0-.64c-1.41-1.52-5.62-4.14-9-3.58a.44.44,0,0,0-.38.52.45.45,0,0,0,.53.38c3.17-.51,7.06,2.09,8.18,3.29A.43.43,0,0,0,349.67,406.6Z" style="fill: rgb(240, 240, 240); transform-origin: 345.333px 404.393px;" id="elvp6it7sxz6r" class="animable"></path><path d="M353.21,403.73a.5.5,0,0,0,.28-.12.45.45,0,0,0,0-.64c-1.93-2.16-6.4-4.14-9.8-3.59a.46.46,0,1,0,.15.91c3.07-.5,7.24,1.37,9,3.28A.5.5,0,0,0,353.21,403.73Z" style="fill: rgb(240, 240, 240); transform-origin: 348.464px 401.509px;" id="elcm6qytgkmip" class="animable"></path><path d="M400.38,424.22c.25,4.11.9,6.83,2.41,9.24s4.33,3.17,7.2,2.46,6.54-2.59,7.36-6.13,1.3-6,.65-9.79Z" style="fill: rgb(38, 50, 56); transform-origin: 409.341px 428.087px;" id="elczp3832kowp" class="animable"></path><path d="M413.06,393.52c1.19.09.91,6.54,1.59,12.07.73,5.92,2.55,8.37,3.2,13.23.75,5.54-.2,8-2.2,11.38s-9.08,6.64-12.57,1.84c-2.85-3.92-3-8.26-2.71-13.8a119.64,119.64,0,0,0-.38-14c-.23-4.15-1.78-8.77-.75-9.23.08.61.16,1.38.24,2a9.65,9.65,0,0,0,.38,2.21c.12.31.39.64.49.13a3,3,0,0,0,0-1c-.17-1.53.62-1.65,1-1.77.93-.26,5.82-1.21,6.71-1.26s4-.2,4.42.3a3.26,3.26,0,0,1,.4,1.61c.1.83.3,1.44.33,1.18.05-.6-.07-2.15-.08-2.53s-.08-.85-.08-1.21S413.09,393.87,413.06,393.52Z" style="fill: rgb(55, 71, 79); transform-origin: 408.498px 413.99px;" id="elxlk68dbjtui" class="animable"></path><path d="M418.18,422a13.45,13.45,0,0,1-2.21,8.43c-2,3.36-9.66,6.66-13.15,1.85-1.73-2.39-2.2-5.21-2.44-8.1C402.47,420.51,414.88,418.88,418.18,422Z" style="fill: rgb(250, 250, 250); transform-origin: 409.298px 427.524px;" id="elmfoefv7yza" class="animable"></path><path d="M403,418.18a.42.42,0,0,0,.15,0s5.51-2.22,10.83-1a.45.45,0,0,0,.53-.32.42.42,0,0,0-.33-.51,21.24,21.24,0,0,0-11.41,1.08.43.43,0,0,0,.23.81Z" style="fill: rgb(240, 240, 240); transform-origin: 408.53px 417.126px;" id="elgkwnbht54b" class="animable"></path><path d="M413.68,413a.43.43,0,0,0,.37-.29.42.42,0,0,0-.27-.54c-5.3-1.75-11.18.87-11.4,1a.42.42,0,0,0-.19.58.45.45,0,0,0,.59.18c.05,0,5.79-2.56,10.72-.93A.55.55,0,0,0,413.68,413Z" style="fill: rgb(240, 240, 240); transform-origin: 408.107px 412.773px;" id="elwkxhpsf8i6b" class="animable"></path><path d="M413.49,409.09a.44.44,0,0,0,.37-.28.42.42,0,0,0-.26-.55c-5.83-2-11.41.83-11.62,1a.42.42,0,0,0-.15.58.45.45,0,0,0,.61.14s5.44-2.76,10.86-.88A.44.44,0,0,0,413.49,409.09Z" style="fill: rgb(240, 240, 240); transform-origin: 407.829px 408.796px;" id="elsn0n4zabxo" class="animable"></path><path d="M413.2,405.25a.45.45,0,0,0,.37-.28.41.41,0,0,0-.26-.54c-5.46-2-11.46.94-11.69,1.07a.41.41,0,0,0-.16.58.45.45,0,0,0,.6.16c.05,0,5.88-2.86,10.95-1A.42.42,0,0,0,413.2,405.25Z" style="fill: rgb(235, 235, 235); transform-origin: 407.498px 405.015px;" id="elczo6wawb8fc" class="animable"></path><path d="M398.38,231.38c5.32,9.41,9.26,17.1,9.8,45.09s.45,35.83.56,39.21,2.13,9.4,3.91,26,.15,38.14.15,38.14-1.7,2.62-8.24,3.19c-6,.53-8.51-1.26-8.51-1.26s-8.8-34.44-11.09-44.45S376,294.39,376,294.39l-2.82,27s.71,8.92-1.13,23.5-7.75,34.62-7.75,34.62a31.32,31.32,0,0,1-8.85,1.06,24,24,0,0,1-9.29-2.1s-.39-48.11-.39-64.63-1.78-58.4,5.27-82.42Z" style="fill: rgb(55, 71, 79); transform-origin: 379.526px 307.244px;" id="elpyh8zpacc0h" class="animable"></path><path d="M376,294.39l-5.39-31.78s-11.38-.79-17.7-7.21c2.57,6.82,11.9,11.6,16,12.55L373.75,294l-.55,27.32Z" style="fill: rgb(38, 50, 56); transform-origin: 364.455px 288.36px;" id="el9ivxc67mtog" class="animable"></path><path d="M387.45,236a38.81,38.81,0,0,1,3.7,7.58,76,76,0,0,1,2.46,8,83,83,0,0,1,1.55,8.24,52,52,0,0,1,.57,8.36c-.68-2.72-1.32-5.41-2-8.12s-1.26-5.39-1.93-8.07-1.33-5.37-2-8S388.31,238.71,387.45,236Z" style="fill: rgb(38, 50, 56); transform-origin: 391.592px 252.09px;" id="elatf1rlyx6zf" class="animable"></path><path d="M391.21,237.05a28.86,28.86,0,0,1,3.89,4.24,40.69,40.69,0,0,1,3.17,4.77,35.36,35.36,0,0,1,2.4,5.19A22.12,22.12,0,0,1,402,256.8l-2.62-5c-.89-1.64-1.77-3.28-2.69-4.9s-1.84-3.23-2.76-4.87S392.06,238.77,391.21,237.05Z" style="fill: rgb(38, 50, 56); transform-origin: 396.605px 246.925px;" id="el22jydo0xumzh" class="animable"></path><path d="M385,270.48c1.24,8.67,2.36,17.34,3.48,26s2.32,17.32,4,25.88,3.37,17.17,4.94,25.77,3.07,17.23,4.43,25.87q-3.09-12.78-5.82-25.61c-1.86-8.56-3.6-17.1-5.33-25.71s-2.71-17.34-3.58-26.05S385.51,279.21,385,270.48Z" style="fill: rgb(38, 50, 56); transform-origin: 393.425px 322.24px;" id="el6cuczs19qi7" class="animable"></path><path d="M355.07,271.2,353.6,294c-.22,3.8-.47,7.6-.65,11.39s-.41,7.6-.34,11.35-.28,31.59-.92,47.26c-.56-12.58-.63-39.56-.89-47.23,0-7.7.69-15.27,1.39-22.87S353.86,278.73,355.07,271.2Z" style="fill: rgb(38, 50, 56); transform-origin: 352.935px 317.6px;" id="el26ds7jn7wzz" class="animable"></path></g><g id="freepik--Top--inject-159" class="animable" style="transform-origin: 378.541px 223.431px;"><g id="freepik--Arm--inject-159" class="animable" style="transform-origin: 319.677px 210.795px;"><g id="freepik--arm--inject-159" class="animable" style="transform-origin: 319.472px 211.005px;"><path d="M274.8,235.11c.86-.7,1.19-.64,1.19-.64-.27-.64.16-2.41,2.45-3,0,0-1.05-1.49,2.38-2.81,3.89-1.51,8.23-1.34,10.62-1.31.91,0,1.75-.56.69-1.05-1.41-.65-3.08-1-4.21-2.09a2.86,2.86,0,0,1-.73-1.14,2.07,2.07,0,0,1,.09-1.32c.34-.92,1.88-.52,2.77-.31,3.52.82,6.84.59,10.06,2.39,1,.58,2.75,1.46,3.91,1.22,6.92-1.47,24.66-7.91,29.27-10.1,7-8.53,10.84-16.95,15.69-24.84,4.11-6.68,8.45-8.28,12.11-9.13l3.58,24.3s-10,13-15.49,20.32c-2.32,3.12-4.84,4.6-10.89,6.09-10,2.45-18.18,3.52-28.11,5.34a30.62,30.62,0,0,0-9.53,3,9.65,9.65,0,0,1-4,1c-3.45,0-5.92-.76-8.92-.83a34.92,34.92,0,0,0-7.12.4c-2,.15-2.82-.37-3.07-1.39s2.15-1.68,2.15-1.68a10.09,10.09,0,0,1-3.59,0C274.73,237,273.94,235.81,274.8,235.11Z" style="fill: rgb(255, 189, 167); transform-origin: 319.556px 211.005px;" id="elyyyt8libecd" class="animable"></path><path d="M283.92,240.43a22.71,22.71,0,0,0-2.74.28c-1.21.2-2.53.49-3.42-.6a1.88,1.88,0,0,1-.41-.93,1.08,1.08,0,0,1,.5-.9,5.34,5.34,0,0,1,.68-.41c-.45,0-.92,0-1.33,0a3.15,3.15,0,0,1-2.19-.74,2,2,0,0,1-.7-1,1.2,1.2,0,0,1,.43-1.24,5.57,5.57,0,0,1,1-.61A1.7,1.7,0,0,1,276,233a2.93,2.93,0,0,1,.87-1,3.54,3.54,0,0,1,1.41-.65,1.53,1.53,0,0,1,.53-1.59,5.87,5.87,0,0,1,1.51-1,16.44,16.44,0,0,1,4.21-1.25,41.35,41.35,0,0,1,7.12-.17,49.33,49.33,0,0,0-7.09.38,16.07,16.07,0,0,0-4.13,1.27,5.62,5.62,0,0,0-1.42,1,1.18,1.18,0,0,0-.41,1.39h0a1.76,1.76,0,0,0,1.75.7c.41,0,2.46-.34,2.88-.38a27.28,27.28,0,0,1,5.78.08,31.6,31.6,0,0,0-5.78.19c-.41.05-2.42.36-2.85.4a2.06,2.06,0,0,1-2-.71,3.21,3.21,0,0,0-1.33.63,2.69,2.69,0,0,0-.77.88,1.4,1.4,0,0,0-.15,1h0a1.25,1.25,0,0,0,1.12.67,5.19,5.19,0,0,0,1.52-.05,21.4,21.4,0,0,1,3.1-.42,27.46,27.46,0,0,1,3.14-.05l3.13.21-3.13-.11a27.14,27.14,0,0,0-3.12.14,21.77,21.77,0,0,0-3.08.52,6.08,6.08,0,0,1-1.6.1,1.8,1.8,0,0,1-1.24-.59,5.39,5.39,0,0,0-1,.56c-.62.39-.3,1.24.26,1.66a2.75,2.75,0,0,0,2,.68c.73,0,1.57,0,2.41-.1,1.48-.06,1.79-.1,3.26-.06s2.94.12,4.4.31c-1.46-.12-2.93-.12-4.4-.11a31.27,31.27,0,0,0-3.22.17,5.43,5.43,0,0,0-1.62.74c-.23.18-.44.42-.41.66a1.78,1.78,0,0,0,.34.79c.76,1,2,.74,3.18.54a17,17,0,0,1,2.77-.19,36.66,36.66,0,0,1,3.78,0A36.45,36.45,0,0,0,283.92,240.43Z" style="fill: rgb(240, 153, 122); transform-origin: 282.962px 234.08px;" id="elcb7eddc90d9" class="animable"></path><path d="M301.65,233.27c-2.5,1.48-6.46-.16-8.67-2C295.06,234.17,298.22,235.9,301.65,233.27Z" style="fill: rgb(240, 153, 122); transform-origin: 297.315px 232.918px;" id="eles3lqnz14ma" class="animable"></path></g><path d="M361.35,180.56c-10.65,1.78-12.41,6.08-16.32,12.8s-11.6,20.8-11.6,20.8l-11,5.08a13.34,13.34,0,0,1,4.83,6.71,24.57,24.57,0,0,1,.58,8.34s10.59-1.52,14.24-2.92,5.68-2.69,9-7.17,14-18.91,14-18.91Z" style="fill: rgb(224, 224, 224); transform-origin: 343.755px 207.425px;" id="el35ur97y4867" class="animable"></path></g><path d="M360.39,173.49a3.57,3.57,0,0,0-.49,2.45,8.9,8.9,0,0,1-6.57-8.76c.14-3.13,2-5.92,2.73-9a10.87,10.87,0,0,0-.77-7.95c-1.19-2.67-3.31-5.42-2.33-8.5,1.67-5.25,7-8.78,11.92-10.67a27.06,27.06,0,0,1,9.85-1.58c6.08.14,14.32,2.69,16.39,8.92a8.13,8.13,0,0,1,4.27,2.48c3,3,3,6.85,3.12,9.24.21,3.11.1,4.46.41,7.56a26.71,26.71,0,0,0,1.21,4.73c.46,1.84,1.49,3.51,1.85,5.38,1,5.27-3.48,9.11-8.42,9.46a6.72,6.72,0,0,0,1.46-3.24,6.36,6.36,0,0,1-2.1,2.51,11.18,11.18,0,0,1-3,1.58,28.4,28.4,0,0,1-11.58,2.24c-5.24.06-7.66-.24-11.25-1.28a15.84,15.84,0,0,1-4.45-2.07A5.44,5.44,0,0,1,360.39,173.49Z" style="fill: rgb(38, 50, 56); transform-origin: 377.415px 154.909px;" id="elps8pldxjpe" class="animable"></path><g id="freepik--Chest--inject-159" class="animable" style="transform-origin: 376.685px 217.535px;"><path d="M369,179.65s15.67.85,21.19,1.88a73,73,0,0,1,9.34,2.34c1.79,2.21,5.23,11.32,5.83,19.85.29,4.16-5.59,16.23-5.76,21-.15,4.13,3,13.2,5.47,19.57-11.22,16.81-51.73,13.1-56.74-2.26l2.47-13.82s.47-8.07.3-11.06A23.71,23.71,0,0,1,348,206.26c0-5.64,1.32-9.94,6.79-17.77,2-2.88,6.57-7.91,6.57-7.91S366.47,179.9,369,179.65Z" style="fill: rgb(250, 250, 250); transform-origin: 376.685px 217.488px;" id="el2rn7e530htv" class="animable"></path><path d="M369,180.44c1.06.06,15.79.88,21,1.87a75,75,0,0,1,9,2.23c1.7,2.33,4.95,11,5.52,19.23.14,2-1.36,6.27-2.82,10.41s-2.85,8.11-2.94,10.55c-.17,4.69,3.59,14.91,5.38,19.5-4.58,6.49-14.43,10.35-26.46,10.35S352,250.26,349.14,242l2.43-13.62v-.09c0-.33.48-8.15.3-11.16V217l-.1-.17a23,23,0,0,1-3-10.52c0-5.23,1.08-9.35,6.65-17.31,1.73-2.48,5.43-6.64,6.32-7.63,1.1-.15,5.09-.67,7.25-.88m0-.79c-2.53.25-7.63.93-7.63.93s-4.55,5-6.57,7.91c-5.47,7.83-6.75,12.13-6.79,17.77a23.71,23.71,0,0,0,3.09,10.93c.17,3-.3,11.06-.3,11.06l-2.47,13.82c2.73,8.38,16,13.3,29.4,13.3,11.1,0,22.25-3.41,27.34-11-2.5-6.37-5.62-15.44-5.47-19.57.17-4.81,6-16.88,5.76-21-.6-8.53-4-17.64-5.83-19.85a73,73,0,0,0-9.34-2.34c-5.52-1-21.19-1.88-21.19-1.88Z" style="fill: rgb(224, 224, 224); transform-origin: 376.679px 217.56px;" id="elf8lmgmnxu8b" class="animable"></path><g id="elxuvp6mpgq4"><path d="M368.66,216.84a10.37,10.37,0,0,0,5.48,3.48,16.68,16.68,0,0,0,7.3.27,12.62,12.62,0,0,0,8.12-5.27c.08-.12.21-.26.36-.22s.16.29.11.46a9.28,9.28,0,0,1-3.06,4.77,11.54,11.54,0,0,1-6,2.18,15.78,15.78,0,0,1-8-1,7.22,7.22,0,0,1-2.67-1.72,7.3,7.3,0,0,1-1.76-2.83C368.53,216.88,368.58,216.77,368.66,216.84Z" style="opacity: 0.2; transform-origin: 379.298px 218.872px;" class="animable"></path></g></g><g id="freepik--Head--inject-159" class="animable" style="transform-origin: 377.52px 164.881px;"><path d="M386.55,176.72c.2-5.58.18-9,.18-9,.6,1,4.12,2.67,7.43-.34a7,7,0,0,0,.85-9.32c-2.1-2.55-5.44-2.33-7.56,1.09-.12.2-1.08,0-1.25-.11a1.83,1.83,0,0,1-.85-.73A3,3,0,0,1,385,157a6.74,6.74,0,0,1,.14-1.56,35.67,35.67,0,0,1-10.89-6.07c-4.22-3.68-6.67-9.39-6.51-10.1a17.89,17.89,0,0,0-4.4,2.25,12.46,12.46,0,0,0-3.49,4.71c-.74,2-.28,3.78-.41,5.8-.08,1.22-.68,3.64-.73,4.94-.35,9.06.58,13.34,3.78,16a12.34,12.34,0,0,0,7.15,2.43s-.13,1.15-.23,2.64-.38,1.51-2,1.84c-1.77,1.92-4.55,8.85,4.1,10.35,9,1.57,17.31-4.23,18.68-8.64C388.23,180.74,386.42,180.45,386.55,176.72Z" style="fill: rgb(255, 189, 167); transform-origin: 377.52px 164.881px;" id="el5380rl2cx2m" class="animable"></path><path d="M369.64,175.34c6.36.13,11.47-1.75,14.5-6a8.23,8.23,0,0,1-3.05,5,21,21,0,0,1-11.65,3.12Z" style="fill: rgb(240, 153, 122); transform-origin: 376.79px 173.405px;" id="elmc5bi4mpokf" class="animable"></path><path d="M368.09,165.63l6.19-1.76a3.06,3.06,0,0,1-2.08,3.95A3.4,3.4,0,0,1,368.09,165.63Z" style="fill: rgb(177, 102, 104); transform-origin: 371.269px 165.904px;" id="elo6jb3mz1jj" class="animable"></path><path d="M370.82,167.9a3.4,3.4,0,0,0,1.38-.08,3,3,0,0,0,2.19-2.43A3.69,3.69,0,0,0,370.82,167.9Z" style="fill: rgb(255, 168, 167); transform-origin: 372.605px 166.663px;" id="elcy8je71us9v" class="animable"></path><polygon points="370.36 150.72 369.38 162.44 363.81 160.21 370.36 150.72" style="fill: rgb(240, 153, 122); transform-origin: 367.085px 156.58px;" id="el910smyfdi89" class="animable"></polygon><path d="M361.84,153.71a1.55,1.55,0,1,0,1.39-1.69A1.55,1.55,0,0,0,361.84,153.71Z" style="fill: rgb(38, 50, 56); transform-origin: 363.383px 153.562px;" id="elfjunu9ou9uf" class="animable"></path><path d="M373.86,154.47a1.55,1.55,0,1,0,1.39-1.69A1.55,1.55,0,0,0,373.86,154.47Z" style="fill: rgb(38, 50, 56); transform-origin: 375.403px 154.322px;" id="elt53nvm0j68" class="animable"></path><path d="M361.14,150.06l4-1.46a2,2,0,0,0-2.66-1.29A2.22,2.22,0,0,0,361.14,150.06Z" style="fill: rgb(38, 50, 56); transform-origin: 363.088px 148.614px;" id="elvzm5ln5fknr" class="animable"></path><path d="M379.92,151.82l-3.81-2a2.07,2.07,0,0,1,2.84-1A2.24,2.24,0,0,1,379.92,151.82Z" style="fill: rgb(38, 50, 56); transform-origin: 378.135px 150.205px;" id="el05uoe13a6" class="animable"></path></g><g id="freepik--arm--inject-159" class="animable" style="transform-origin: 438.052px 213.58px;"><g id="freepik--arm--inject-159" class="animable" style="transform-origin: 439.389px 213.825px;"><path d="M482.29,238.19c-.86-.71-1.19-.64-1.19-.64.27-.64-.16-2.41-2.46-3,0,0,1.05-1.49-2.37-2.81-3.89-1.51-8.24-1.34-10.62-1.31-.92,0-1.75-.56-.7-1,1.42-.65,3.08-1,4.22-2.09a2.8,2.8,0,0,0,.72-1.14,2,2,0,0,0-.08-1.32c-.34-.92-1.89-.52-2.77-.31-3.53.82-6.84.59-10.06,2.39-1,.58-2.76,1.46-3.92,1.22-6.92-1.47-25.47-7.48-30.08-9.67-5.1-9.65-8.84-16.75-13.69-24.64-4.11-6.68-9.56-9.52-13.22-10.38l-.1,20.69s7.12,16.06,12.6,23.4c2.32,3.12,4.17,5.75,10.23,7.24,10,2.44,18.18,3.52,28.11,5.34a30.44,30.44,0,0,1,9.53,3,9.6,9.6,0,0,0,4,1c3.45,0,5.93-.76,8.92-.83a34.76,34.76,0,0,1,7.12.4c2,.15,2.82-.37,3.08-1.39s-2.15-1.68-2.15-1.68a10.09,10.09,0,0,0,3.59,0C482.36,240.11,483.15,238.89,482.29,238.19Z" style="fill: rgb(255, 189, 167); transform-origin: 439.309px 213.825px;" id="elxjlw7dxzf6k" class="animable"></path><path d="M473.17,243.51a23.13,23.13,0,0,1,2.74.28c1.21.2,2.53.49,3.42-.6a1.88,1.88,0,0,0,.41-.93,1.09,1.09,0,0,0-.51-.9,4.23,4.23,0,0,0-.68-.41c.46,0,.92,0,1.33,0a3.14,3.14,0,0,0,2.19-.74,1.91,1.91,0,0,0,.7-1,1.2,1.2,0,0,0-.42-1.24,6,6,0,0,0-1-.61,1.7,1.7,0,0,0-.2-1.28,3,3,0,0,0-.86-1,3.6,3.6,0,0,0-1.41-.65,1.55,1.55,0,0,0-.53-1.59,6.23,6.23,0,0,0-1.51-1,16.51,16.51,0,0,0-4.22-1.25,41.3,41.3,0,0,0-7.12-.17,49.33,49.33,0,0,1,7.09.38,16,16,0,0,1,4.13,1.27,5.5,5.5,0,0,1,1.43,1,1.2,1.2,0,0,1,.41,1.39h0a1.77,1.77,0,0,1-1.75.7c-.41,0-2.47-.35-2.89-.38a27.3,27.3,0,0,0-5.78.08,31.71,31.71,0,0,1,5.79.19c.41.05,2.42.36,2.85.4a2.07,2.07,0,0,0,2-.71,3.33,3.33,0,0,1,1.33.63,2.68,2.68,0,0,1,.76.88,1.36,1.36,0,0,1,.16,1h0a1.24,1.24,0,0,1-1.12.67,5.49,5.49,0,0,1-1.51,0,21.53,21.53,0,0,0-3.11-.42,27.38,27.38,0,0,0-3.14,0l-3.12.21,3.13-.11a26.87,26.87,0,0,1,3.11.14,21.53,21.53,0,0,1,3.08.52,6.1,6.1,0,0,0,1.6.1,1.76,1.76,0,0,0,1.24-.59,5.69,5.69,0,0,1,1,.56c.62.39.3,1.24-.27,1.66a2.75,2.75,0,0,1-2,.68c-.73,0-1.57,0-2.41-.1-1.47-.06-1.79-.1-3.26-.06s-2.94.12-4.39.31c1.46-.12,2.93-.12,4.4-.11a31.42,31.42,0,0,1,3.22.17,5.43,5.43,0,0,1,1.62.74.83.83,0,0,1,.4.66,1.67,1.67,0,0,1-.34.79c-.76,1-2,.74-3.18.54a16.84,16.84,0,0,0-2.76-.19,36.86,36.86,0,0,0-3.79,0A36.76,36.76,0,0,1,473.17,243.51Z" style="fill: rgb(240, 153, 122); transform-origin: 474.154px 237.16px;" id="elxgavyqhcybj" class="animable"></path><path d="M455.44,236.35c2.49,1.48,6.46-.16,8.67-2C462,237.25,458.87,239,455.44,236.35Z" style="fill: rgb(240, 153, 122); transform-origin: 459.775px 236.003px;" id="elg01ubilnpmq" class="animable"></path></g><path d="M395.82,183c10.64,1.79,12.33,6.7,16.24,13.42S423.24,218,423.24,218l11.38,4.36a13.34,13.34,0,0,0-4.83,6.71,24.42,24.42,0,0,0-.57,8.34s-10.6-1.52-14.25-2.92-4.79-3.2-8.12-7.68-8.76-15.8-11.74-22.34C390.65,194.65,395.82,183,395.82,183Z" style="fill: rgb(224, 224, 224); transform-origin: 413.958px 210.205px;" id="elp2rnfrpthj" class="animable"></path></g><path d="M404.5,240.9,402.45,236s-2.34,4.37-5.63,3.09-3.1-13.7-2.92-24.94,1.81-25.83,4.22-30.76a52.06,52.06,0,0,0-5.21-1.38c-3.64,10.49-3.94,16.15-3.94,16.15a203.94,203.94,0,0,1-32.64-2.56,37.92,37.92,0,0,1,8.61-15.46l-5,.27s-8.8,7.76-11.59,19.68c-3.34,14.23,3.73,16.5-1,43.91C343,268.77,342,312,342,312s7.85,3.86,26.53,5.14a126.51,126.51,0,0,0,34.5-2.56l-4.2-68.47Z" style="fill: rgb(186, 104, 200); transform-origin: 373.25px 248.766px;" id="elvyavnkqi3qj" class="animable"></path><g id="el748y1kr489k"><path d="M404.5,240.9,402.45,236s-2.34,4.37-5.63,3.09-3.1-13.7-2.92-24.94,1.81-25.83,4.22-30.76a52.06,52.06,0,0,0-5.21-1.38c-3.64,10.49-3.94,16.15-3.94,16.15a203.94,203.94,0,0,1-32.64-2.56,37.92,37.92,0,0,1,8.61-15.46l-5,.27s-8.8,7.76-11.59,19.68c-3.34,14.23,3.73,16.5-1,43.91C343,268.77,342,312,342,312s7.85,3.86,26.53,5.14a126.51,126.51,0,0,0,34.5-2.56l-4.2-68.47Z" style="fill: rgb(255, 255, 255); opacity: 0.45; transform-origin: 373.25px 248.766px;" class="animable"></path></g><path d="M400.83,311c-21.88,3.82-50.58,0-56.84-2.64l-.39.92c4.54,1.91,19.68,4.37,36,4.37A126.58,126.58,0,0,0,401,312ZM390.57,203.16l-13.05-.73-.43,5,13.1.81Z" style="fill: rgb(186, 104, 200); transform-origin: 372.3px 258.042px;" id="elf25rfpufrju" class="animable"></path></g></g></g><g id="freepik--speech-bubble--inject-159" class="animable" style="transform-origin: 391.287px 97.2368px;"><g id="freepik--speech-bubble--inject-159" class="animable" style="transform-origin: 391.287px 97.2368px;"><path d="M432.17,81c-13.06-19.81-74.64-23.83-84.31,6.08-4.51,14.26,5.91,26.09,23.83,30.34,9.91,2.35,21.73,3.11,36.18.31,1.88,4,.4,8.88-1.9,11.4,8.23-2.59,13.33-9.5,13.81-15C438,105.87,438,89.48,432.17,81Z" style="fill: rgb(255, 255, 255); transform-origin: 391.216px 97.2585px;" id="elom380j7tecr" class="animable"></path><path d="M406,129.59a.47.47,0,0,1-.4-.22.47.47,0,0,1,.05-.56,10.56,10.56,0,0,0,2-10.57c-12.83,2.45-24.61,2.32-36-.38-10.71-2.53-18.76-7.73-22.67-14.62a20,20,0,0,1-1.49-16.31c5-15.44,22.29-20,32.16-21.34,21.76-3,45.52,3.84,53,15.14a21.6,21.6,0,0,1,2.74,17.56c-1.34,4.82-5.05,11.53-15.08,16.17-.63,5.42-5.72,12.46-14.12,15.11Zm1.9-12.34a.46.46,0,0,1,.42.27,11.39,11.39,0,0,1-1,10.64c7.28-2.88,11.61-9.22,12-14a.45.45,0,0,1,.27-.38c9.89-4.5,13.51-11,14.81-15.69a20.65,20.65,0,0,0-2.61-16.79h0c-7.28-11-30.64-17.64-52.07-14.73-9.66,1.31-26.57,5.75-31.4,20.7a19.12,19.12,0,0,0,1.41,15.57c3.78,6.67,11.62,11.7,22.08,14.18,11.37,2.69,23.14,2.79,36,.3Z" style="fill: rgb(186, 104, 200); transform-origin: 391.287px 97.2368px;" id="elrnpf93em21l" class="animable"></path><path d="M358.47,99l-1.39-12.31v-.06l0-.21c0-.29.38-.43,1-.43h.44c.65,0,1,.16,1,.49L360,94.3c0,.38,0,1,0,1.73,0,.19,0,.48,0,.86.15-.56.26-1,.32-1.26.18-.61.3-1,.36-1.35l2.17-7.88a.44.44,0,0,1,.28-.3,2,2,0,0,1,.63-.08h.61a2,2,0,0,1,.63.08.36.36,0,0,1,.23.3l.62,7.9c0,.48.07,1.36.1,2.63l.42-1.66.24-1,1.92-7.79c.08-.33.44-.49,1.09-.49H370c.66,0,1,.14.95.43,0,0,0,.07,0,.13a.34.34,0,0,1-.05.14L367.16,99c-.08.24-.39.37-.94.37h-.89a1.48,1.48,0,0,1-.56-.1.34.34,0,0,1-.24-.27l-.74-7.18,0-2.22-.53,2.22L361.09,99a.43.43,0,0,1-.3.27,1.81,1.81,0,0,1-.61.1h-.87C358.76,99.4,358.48,99.27,358.47,99Z" style="fill: rgb(69, 90, 100); transform-origin: 364.017px 92.6821px;" id="el6iyrwskuj4a" class="animable"></path><path d="M377.66,96.92a1.45,1.45,0,0,1,.08.52,1.84,1.84,0,0,1-.28,1.06,2,2,0,0,1-1.16.73,5.67,5.67,0,0,1-1.6.26,3.74,3.74,0,0,1-2.75-1,4.08,4.08,0,0,1-1-3A8,8,0,0,1,372.13,91a3.87,3.87,0,0,1,3.43-1.74,3.33,3.33,0,0,1,1.8.42,2.33,2.33,0,0,1,.92,1,3.05,3.05,0,0,1,.26,1.2,3.21,3.21,0,0,1-1.07,2.54,4,4,0,0,1-2.73.93,9.16,9.16,0,0,1-1.35-.09,2.68,2.68,0,0,0,.44,1.76,1.6,1.6,0,0,0,1.27.5,2.55,2.55,0,0,0,1-.17,7.38,7.38,0,0,0,.89-.48,1,1,0,0,1,.44-.22A.28.28,0,0,1,377.66,96.92Zm-4.16-3h.74a2.65,2.65,0,0,0,1.5-.4,1.42,1.42,0,0,0,.58-1.24,1.13,1.13,0,0,0-.25-.77.87.87,0,0,0-.67-.27C374.42,91.19,373.78,92.08,373.5,93.87Z" style="fill: rgb(69, 90, 100); transform-origin: 374.741px 94.3752px;" id="elkq6vf8tiwl" class="animable"></path><path d="M380.25,99a2.1,2.1,0,0,1-.55-1.62,4.83,4.83,0,0,1,0-.53l1.17-11.25c0-.35.4-.53,1.07-.53h.36c.67,0,1,.18,1,.53l-1.18,11.21a1.52,1.52,0,0,0,0,.23q0,.57.48.57a1,1,0,0,0,.26,0,.84.84,0,0,1,.23,0c.09,0,.16,0,.21.17a1,1,0,0,1,.08.41,1.13,1.13,0,0,1,0,.23,1.16,1.16,0,0,1-.49.89,1.94,1.94,0,0,1-1.11.29A2.1,2.1,0,0,1,380.25,99Z" style="fill: rgb(69, 90, 100); transform-origin: 381.538px 92.336px;" id="elqyg5xnsyk5r" class="animable"></path><path d="M385.41,98.53a4.27,4.27,0,0,1-.89-3c0-.36,0-.74.06-1.16A6.63,6.63,0,0,1,386,90.52a4.08,4.08,0,0,1,3.14-1.23,4.35,4.35,0,0,1,1.74.33c.51.22.77.48.77.77a1.74,1.74,0,0,1-.33.81c-.22.34-.41.52-.56.52a.72.72,0,0,1-.31-.12,2.53,2.53,0,0,0-1.29-.41,1.61,1.61,0,0,0-1.42.74,5.4,5.4,0,0,0-.71,2.43,10.47,10.47,0,0,0-.05,1.08,2.93,2.93,0,0,0,.36,1.64,1.27,1.27,0,0,0,1.12.51,2.22,2.22,0,0,0,.73-.1c.2-.07.45-.18.75-.32l.18-.07.14-.06c.17,0,.32.16.46.48a1.56,1.56,0,0,1,.17.79c0,.2-.18.4-.5.58a4.51,4.51,0,0,1-1.14.44,5,5,0,0,1-1.19.16A3.46,3.46,0,0,1,385.41,98.53Z" style="fill: rgb(69, 90, 100); transform-origin: 388.077px 94.3916px;" id="elrovvyh5egc" class="animable"></path><path d="M393.06,98.47a4.55,4.55,0,0,1-.84-3,10.56,10.56,0,0,1,.06-1.1,6.92,6.92,0,0,1,1.36-3.8,3.63,3.63,0,0,1,3-1.31,3,3,0,0,1,2.47,1,4.58,4.58,0,0,1,.84,3c0,.34,0,.71-.06,1.12a7,7,0,0,1-1.36,3.79,3.64,3.64,0,0,1-2.95,1.3A3,3,0,0,1,393.06,98.47Zm3.8-1.63a7.55,7.55,0,0,0,.59-2.46,11.48,11.48,0,0,0,.07-1.28,3,3,0,0,0-.27-1.46.94.94,0,0,0-.85-.45,1.22,1.22,0,0,0-1.12.74,6.8,6.8,0,0,0-.57,2.45,12,12,0,0,0-.08,1.31,2.9,2.9,0,0,0,.27,1.45.91.91,0,0,0,.84.45A1.23,1.23,0,0,0,396.86,96.84Z" style="fill: rgb(69, 90, 100); transform-origin: 396.085px 94.367px;" id="el10o9ayhfmlvl" class="animable"></path><path d="M413.58,97.62a.88.88,0,0,1,.06.35,1.4,1.4,0,0,1-.43,1.1,1.68,1.68,0,0,1-1.21.4,1.71,1.71,0,0,1-1.23-.45,2,2,0,0,1-.48-1.51c0-.07.07-.79.19-2.14l.29-2.82a2.93,2.93,0,0,0,0-.36q0-.93-.78-.93a1.27,1.27,0,0,0-.7.23,2.41,2.41,0,0,0-.58.57l-.72,6.8c0,.36-.36.54-1,.54h-.47c-.65,0-.95-.18-.91-.54l.66-6.31a1.38,1.38,0,0,0,0-.32,1.13,1.13,0,0,0-.19-.72.71.71,0,0,0-.62-.25,1.15,1.15,0,0,0-.75.28,2.58,2.58,0,0,0-.55.6l-.7,6.72c0,.36-.37.54-1,.54H402c-.64,0-.94-.18-.91-.54l.68-6.31q.09-1,.09-1.71c0-.21,0-.38,0-.51a.74.74,0,0,1,0-.3q0-.32.69-.45a6,6,0,0,1,1.15-.14.4.4,0,0,1,.42.23,1.46,1.46,0,0,1,.1.55c0,.21,0,.38,0,.49a4.14,4.14,0,0,1,1.14-1,2.82,2.82,0,0,1,1.45-.39,2,2,0,0,1,1.22.34,1.65,1.65,0,0,1,.64,1,4,4,0,0,1,1.18-1,2.91,2.91,0,0,1,1.48-.38,1.79,1.79,0,0,1,1.41.55,2.35,2.35,0,0,1,.51,1.65c0,.11,0,.31,0,.59l-.32,3.23L412.72,97v.08c0,.3.11.45.31.45a.71.71,0,0,0,.21,0l.17,0C413.49,97.48,413.54,97.52,413.58,97.62Z" style="fill: rgb(69, 90, 100); transform-origin: 407.365px 94.3752px;" id="eldym1t3r1qqj" class="animable"></path><path d="M421.53,96.92a1.25,1.25,0,0,1,.09.52,1.84,1.84,0,0,1-.29,1.06,2,2,0,0,1-1.16.73,5.6,5.6,0,0,1-1.59.26,3.73,3.73,0,0,1-2.75-1,4.08,4.08,0,0,1-1-3A8,8,0,0,1,416,91a3.86,3.86,0,0,1,3.42-1.74,3.39,3.39,0,0,1,1.81.42,2.33,2.33,0,0,1,.92,1,3.05,3.05,0,0,1,.26,1.2,3.21,3.21,0,0,1-1.07,2.54,4,4,0,0,1-2.73.93,9.16,9.16,0,0,1-1.35-.09,2.75,2.75,0,0,0,.43,1.76,1.62,1.62,0,0,0,1.28.5,2.55,2.55,0,0,0,1-.17,7.38,7.38,0,0,0,.89-.48,1,1,0,0,1,.44-.22A.26.26,0,0,1,421.53,96.92Zm-4.15-3h.74a2.6,2.6,0,0,0,1.49-.4,1.4,1.4,0,0,0,.58-1.24,1.13,1.13,0,0,0-.24-.77.87.87,0,0,0-.67-.27C418.29,91.19,417.66,92.08,417.38,93.87Z" style="fill: rgb(69, 90, 100); transform-origin: 418.616px 94.3754px;" id="eljm4rcyx6ihs" class="animable"></path><path d="M423.12,98.86l.17-1.57c0-.36.38-.54,1-.54h.51c.65,0,.95.18.91.54l-.17,1.57c0,.36-.38.54-1,.54H424C423.38,99.4,423.08,99.22,423.12,98.86Zm.89-3.72a.39.39,0,0,1-.13-.4l.86-8.19c0-.36.37-.53,1-.53h.72c.64,0,.94.16.92.49l-1.68,8.23a.58.58,0,0,1-.23.41,1.28,1.28,0,0,1-.66.12h-.15A1.13,1.13,0,0,1,424,95.14Z" style="fill: rgb(69, 90, 100); transform-origin: 425.249px 92.71px;" id="el57u0bl9j9ul" class="animable"></path></g></g><defs>     <filter id="active" height="200%">         <feMorphology in="SourceAlpha" result="DILATED" operator="dilate" radius="2"></feMorphology>                <feFlood flood-color="#32DFEC" flood-opacity="1" result="PINK"></feFlood>        <feComposite in="PINK" in2="DILATED" operator="in" result="OUTLINE"></feComposite>        <feMerge>            <feMergeNode in="OUTLINE"></feMergeNode>            <feMergeNode in="SourceGraphic"></feMergeNode>        </feMerge>    </filter>    <filter id="hover" height="200%">        <feMorphology in="SourceAlpha" result="DILATED" operator="dilate" radius="2"></feMorphology>                <feFlood flood-color="#ff0000" flood-opacity="0.5" result="PINK"></feFlood>        <feComposite in="PINK" in2="DILATED" operator="in" result="OUTLINE"></feComposite>        <feMerge>            <feMergeNode in="OUTLINE"></feMergeNode>            <feMergeNode in="SourceGraphic"></feMergeNode>        </feMerge>            <feColorMatrix type="matrix" values="0   0   0   0   0                0   1   0   0   0                0   0   0   0   0                0   0   0   1   0 "></feColorMatrix>    </filter></defs></svg>